<svg id="small_elements" data-name="small elements" xmlns="http://www.w3.org/2000/svg" xmlns:xlink="http://www.w3.org/1999/xlink" viewBox="0 0 25.8 29.8"><defs><linearGradient id="Sfumatura_senza_nome_2" x1="945.5" y1="-5752.1" x2="947.55" y2="-5752.1" gradientTransform="translate(-5739.25 -938.84) rotate(90)" gradientUnits="userSpaceOnUse"><stop offset="0" stop-color="gray"/><stop offset="0.5" stop-color="#ccc"/><stop offset="1" stop-color="gray"/></linearGradient><linearGradient id="Sfumatura_senza_nome_2-2" x1="942.58" y1="-5752.11" x2="944.62" y2="-5752.11" gradientTransform="translate(-5739.26 -938.84) rotate(90)" xlink:href="#Sfumatura_senza_nome_2"/><linearGradient id="Sfumatura_senza_nome_2-3" x1="939.65" y1="-5752.11" x2="941.7" y2="-5752.11" gradientTransform="translate(-5739.26 -938.83) rotate(90)" xlink:href="#Sfumatura_senza_nome_2"/><linearGradient id="Sfumatura_senza_nome_2-4" x1="948.43" y1="-5752.11" x2="950.47" y2="-5752.11" gradientTransform="translate(-5739.26 -938.83) rotate(90)" xlink:href="#Sfumatura_senza_nome_2"/><linearGradient id="Sfumatura_senza_nome_2-5" x1="951.35" y1="-5752.11" x2="953.4" y2="-5752.11" gradientTransform="translate(-5739.26 -938.84) rotate(90)" xlink:href="#Sfumatura_senza_nome_2"/><linearGradient id="Sfumatura_senza_nome_2-6" x1="954.28" y1="-5752.1" x2="956.33" y2="-5752.1" xlink:href="#Sfumatura_senza_nome_2"/><linearGradient id="Sfumatura_senza_nome_2-7" x1="957.21" y1="-5752.11" x2="959.25" y2="-5752.11" gradientTransform="translate(-5739.26 -938.84) rotate(90)" xlink:href="#Sfumatura_senza_nome_2"/><linearGradient id="Sfumatura_senza_nome_2-8" x1="960.13" y1="-5752.1" x2="962.18" y2="-5752.1" xlink:href="#Sfumatura_senza_nome_2"/><linearGradient id="Sfumatura_senza_nome_2-9" x1="963.06" y1="-5752.11" x2="965.1" y2="-5752.11" gradientTransform="translate(-5739.26 -938.83) rotate(90)" xlink:href="#Sfumatura_senza_nome_2"/><linearGradient id="Sfumatura_senza_nome_2-10" x1="965.98" y1="-5752.11" x2="968.03" y2="-5752.11" gradientTransform="translate(-5739.26 -938.84) rotate(90)" xlink:href="#Sfumatura_senza_nome_2"/></defs><g id="rullieraS"><path d="M22.7,1.4V28.7c0,.2-.2.5-.4.5H3.5a.46.46,0,0,1-.4-.5V1.4A.43.43,0,0,1,3.5,1H22.2A.46.46,0,0,1,22.7,1.4Z" style="fill:#333"/><path d="M.2,29.4V.3A.1.1,0,0,1,.3.2H2.2a.1.1,0,0,1,.1.1V29.4a.1.1,0,0,1-.1.1H.4C.3,29.5.2,29.5.2,29.4Z" style="fill:gray"/><line x1="0.3" y1="0.2" x2="2.3" y2="0.2" style="fill:none;stroke:#999;stroke-miterlimit:10;stroke-width:0.119999997317791px"/><path d="M.3,29.6c-.1,0-.1,0-.1-.1h0V.3C.2.2.2.2.3.2" style="fill:none;stroke:#4d4d4d;stroke-miterlimit:10;stroke-width:0.119999997317791px"/><line x1="2.3" y1="29.6" x2="0.3" y2="29.6" style="fill:none;stroke:#999;stroke-miterlimit:10;stroke-width:0.119999997317791px"/><path d="M2.3.2c.1,0,.1,0,.1.1V29.4c0,.1,0,.1-.1.1h0" style="fill:none;stroke:#e6e6e6;stroke-miterlimit:10;stroke-width:0.119999997317791px"/><rect x="2.7" y="6.7" width="20.3" height="2.1" style="fill:url(#Sfumatura_senza_nome_2)"/><rect x="2.4" y="7.4" width="0.3" height="0.5" style="fill:#333"/><rect x="23" y="7.4" width="0.3" height="0.5" style="fill:#333"/><rect x="2.7" y="3.7" width="20.3" height="2.1" style="fill:url(#Sfumatura_senza_nome_2-2)"/><rect x="2.4" y="4.5" width="0.3" height="0.5" style="fill:#333"/><rect x="23" y="4.5" width="0.3" height="0.5" style="fill:#333"/><rect x="2.7" y="0.8" width="20.3" height="2.1" style="fill:url(#Sfumatura_senza_nome_2-3)"/><rect x="2.4" y="1.6" width="0.3" height="0.5" style="fill:#333"/><rect x="23" y="1.6" width="0.3" height="0.5" style="fill:#333"/><rect x="2.7" y="9.6" width="20.3" height="2.1" style="fill:url(#Sfumatura_senza_nome_2-4)"/><rect x="2.4" y="10.4" width="0.3" height="0.5" style="fill:#333"/><rect x="23" y="10.4" width="0.3" height="0.5" style="fill:#333"/><rect x="2.7" y="12.5" width="20.3" height="2.1" style="fill:url(#Sfumatura_senza_nome_2-5)"/><rect x="2.4" y="13.3" width="0.4" height="0.5" style="fill:#333"/><rect x="23" y="13.3" width="0.3" height="0.5" style="fill:#333"/><rect x="2.7" y="15.4" width="20.3" height="2.1" style="fill:url(#Sfumatura_senza_nome_2-6)"/><rect x="2.4" y="16.2" width="0.3" height="0.5" style="fill:#333"/><rect x="23" y="16.2" width="0.3" height="0.5" style="fill:#333"/><rect x="2.7" y="18.4" width="20.3" height="2.1" style="fill:url(#Sfumatura_senza_nome_2-7)"/><rect x="2.4" y="19.1" width="0.3" height="0.5" style="fill:#333"/><rect x="23" y="19.1" width="0.3" height="0.5" style="fill:#333"/><rect x="2.7" y="21.3" width="20.3" height="2.1" style="fill:url(#Sfumatura_senza_nome_2-8)"/><rect x="2.4" y="22.1" width="0.3" height="0.5" style="fill:#333"/><rect x="23" y="22.1" width="0.3" height="0.5" style="fill:#333"/><rect x="2.7" y="24.2" width="20.3" height="2.1" style="fill:url(#Sfumatura_senza_nome_2-9)"/><rect x="2.4" y="25" width="0.3" height="0.5" style="fill:#333"/><rect x="23" y="25" width="0.3" height="0.5" style="fill:#333"/><rect x="2.7" y="27.1" width="20.3" height="2.1" style="fill:url(#Sfumatura_senza_nome_2-10)"/><rect x="2.4" y="27.9" width="0.3" height="0.5" style="fill:#333"/><rect x="23" y="27.9" width="0.3" height="0.5" style="fill:#333"/><path d="M23.3,29.4V.3a.1.1,0,0,1,.1-.1h1.9a.1.1,0,0,1,.1.1V29.4a.1.1,0,0,1-.1.1H23.4A.1.1,0,0,1,23.3,29.4Z" style="fill:gray"/><line x1="23.4" y1="0.2" x2="25.4" y2="0.2" style="fill:none;stroke:#999;stroke-miterlimit:10;stroke-width:0.119999997317791px"/><path d="M23.4,29.6c-.1,0-.1,0-.1-.1h0V.3c0-.1,0-.1.1-.1" style="fill:none;stroke:#4d4d4d;stroke-miterlimit:10;stroke-width:0.119999997317791px"/><line x1="25.4" y1="29.6" x2="23.4" y2="29.6" style="fill:none;stroke:#999;stroke-miterlimit:10;stroke-width:0.119999997317791px"/></g></svg>