<svg id="small_elements" data-name="small elements" xmlns="http://www.w3.org/2000/svg" xmlns:xlink="http://www.w3.org/1999/xlink" viewBox="0 0 25.8 44.3"><defs><linearGradient id="Sfumatura_senza_nome_2" x1="882.3" y1="6649.46" x2="884.35" y2="6649.46" gradientTransform="matrix(0, 1, 1, 0, -6636.46, -875.64)" gradientUnits="userSpaceOnUse"><stop offset="0" stop-color="gray"/><stop offset="0.5" stop-color="#ccc"/><stop offset="1" stop-color="gray"/></linearGradient><linearGradient id="Sfumatura_senza_nome_2-2" x1="879.38" y1="6649.47" x2="881.42" y2="6649.47" gradientTransform="matrix(0, 1, 1, 0, -6636.47, -875.64)" xlink:href="#Sfumatura_senza_nome_2"/><linearGradient id="Sfumatura_senza_nome_2-3" x1="876.45" y1="6649.47" x2="878.5" y2="6649.47" gradientTransform="matrix(0, 1, 1, 0, -6636.47, -875.63)" xlink:href="#Sfumatura_senza_nome_2"/><linearGradient id="Sfumatura_senza_nome_2-4" x1="885.23" y1="6649.47" x2="887.27" y2="6649.47" gradientTransform="matrix(0, 1, 1, 0, -6636.47, -875.63)" xlink:href="#Sfumatura_senza_nome_2"/><linearGradient id="Sfumatura_senza_nome_2-5" x1="888.15" y1="6649.47" x2="890.2" y2="6649.47" gradientTransform="matrix(0, 1, 1, 0, -6636.47, -875.64)" xlink:href="#Sfumatura_senza_nome_2"/><linearGradient id="Sfumatura_senza_nome_2-6" x1="891.08" y1="6649.46" x2="893.13" y2="6649.46" xlink:href="#Sfumatura_senza_nome_2"/><linearGradient id="Sfumatura_senza_nome_2-7" x1="894.01" y1="6649.47" x2="896.05" y2="6649.47" gradientTransform="matrix(0, 1, 1, 0, -6636.47, -875.64)" xlink:href="#Sfumatura_senza_nome_2"/><linearGradient id="Sfumatura_senza_nome_2-8" x1="896.93" y1="6649.46" x2="898.98" y2="6649.46" xlink:href="#Sfumatura_senza_nome_2"/><linearGradient id="Sfumatura_senza_nome_2-9" x1="899.86" y1="6649.47" x2="901.9" y2="6649.47" gradientTransform="matrix(0, 1, 1, 0, -6636.47, -875.63)" xlink:href="#Sfumatura_senza_nome_2"/><linearGradient id="Sfumatura_senza_nome_2-10" x1="902.78" y1="6649.47" x2="904.83" y2="6649.47" gradientTransform="matrix(0, 1, 1, 0, -6636.47, -875.64)" xlink:href="#Sfumatura_senza_nome_2"/><linearGradient id="Sfumatura_senza_nome_2-11" x1="905.72" y1="6649.46" x2="907.77" y2="6649.46" xlink:href="#Sfumatura_senza_nome_2"/><linearGradient id="Sfumatura_senza_nome_2-12" x1="908.65" y1="6649.47" x2="910.69" y2="6649.47" gradientTransform="matrix(0, 1, 1, 0, -6636.47, -875.64)" xlink:href="#Sfumatura_senza_nome_2"/><linearGradient id="Sfumatura_senza_nome_2-13" x1="911.57" y1="6649.46" x2="913.62" y2="6649.46" xlink:href="#Sfumatura_senza_nome_2"/><linearGradient id="Sfumatura_senza_nome_2-14" x1="914.5" y1="6649.47" x2="916.54" y2="6649.47" gradientTransform="matrix(0, 1, 1, 0, -6636.47, -875.63)" xlink:href="#Sfumatura_senza_nome_2"/><linearGradient id="Sfumatura_senza_nome_2-15" x1="917.42" y1="6649.47" x2="919.47" y2="6649.47" gradientTransform="matrix(0, 1, 1, 0, -6636.47, -875.64)" xlink:href="#Sfumatura_senza_nome_2"/></defs><g id="_rullieraM_" data-name=" rullieraM "><path d="M23,1.7V42.8c0,.4-.2.7-.5.7H3.5a.68.68,0,0,1-.5-.7V1.7c.1-.4.3-.7.6-.7H22.7C22.8,1,23,1.3,23,1.7Z" style="fill:#333"/><path d="M.2,44V.4A.35.35,0,0,1,.3.2H2.2c.1,0,.1.1.1.2V44a.35.35,0,0,1-.1.2H.4A.22.22,0,0,1,.2,44Z" style="fill:gray"/><line x1="0.3" y1="0.2" x2="2.3" y2="0.2" style="fill:none;stroke:#999;stroke-miterlimit:10;stroke-width:0.119999997317791px"/><path d="M.3,44.2c-.1,0-.1-.1-.1-.2h0V.4C.2.3.2.2.3.2" style="fill:none;stroke:#4d4d4d;stroke-miterlimit:10;stroke-width:0.146899998188019px"/><line x1="2.3" y1="44.2" x2="0.3" y2="44.2" style="fill:none;stroke:#999;stroke-miterlimit:10;stroke-width:0.146899998188019px"/><path d="M2.2.2c.1,0,.1.1.1.2V44c0,.1,0,.2-.1.2h0" style="fill:none;stroke:#e6e6e6;stroke-miterlimit:10;stroke-width:0.146899998188019px"/><rect x="2.7" y="6.7" width="20.6" height="2.1" style="fill:url(#Sfumatura_senza_nome_2)"/><rect x="2.4" y="7.4" width="0.3" height="0.5" style="fill:#333"/><rect x="23.3" y="7.4" width="0.3" height="0.5" style="fill:#333"/><rect x="2.7" y="3.7" width="20.6" height="2.1" style="fill:url(#Sfumatura_senza_nome_2-2)"/><rect x="2.4" y="4.5" width="0.3" height="0.5" style="fill:#333"/><rect x="23.3" y="4.5" width="0.3" height="0.5" style="fill:#333"/><rect x="2.7" y="0.8" width="20.6" height="2.1" style="fill:url(#Sfumatura_senza_nome_2-3)"/><rect x="2.4" y="1.6" width="0.3" height="0.5" style="fill:#333"/><rect x="23.3" y="1.6" width="0.3" height="0.5" style="fill:#333"/><rect x="2.7" y="9.6" width="20.6" height="2.1" style="fill:url(#Sfumatura_senza_nome_2-4)"/><rect x="2.4" y="10.4" width="0.3" height="0.5" style="fill:#333"/><rect x="23.3" y="10.4" width="0.3" height="0.5" style="fill:#333"/><rect x="2.7" y="12.5" width="20.6" height="2.1" style="fill:url(#Sfumatura_senza_nome_2-5)"/><rect x="2.4" y="13.3" width="0.3" height="0.5" style="fill:#333"/><rect x="23.3" y="13.3" width="0.3" height="0.5" style="fill:#333"/><rect x="2.7" y="15.4" width="20.6" height="2" style="fill:url(#Sfumatura_senza_nome_2-6)"/><rect x="2.4" y="16.2" width="0.3" height="0.5" style="fill:#333"/><rect x="23.3" y="16.2" width="0.3" height="0.5" style="fill:#333"/><rect x="2.7" y="18.4" width="20.6" height="2" style="fill:url(#Sfumatura_senza_nome_2-7)"/><rect x="2.4" y="19.1" width="0.3" height="0.5" style="fill:#333"/><rect x="23.3" y="19.1" width="0.3" height="0.5" style="fill:#333"/><rect x="2.7" y="21.3" width="20.6" height="2" style="fill:url(#Sfumatura_senza_nome_2-8)"/><rect x="2.4" y="22.1" width="0.3" height="0.5" style="fill:#333"/><rect x="23.3" y="22.1" width="0.3" height="0.5" style="fill:#333"/><rect x="2.7" y="24.2" width="20.6" height="2" style="fill:url(#Sfumatura_senza_nome_2-9)"/><rect x="2.4" y="25" width="0.3" height="0.5" style="fill:#333"/><rect x="23.3" y="25" width="0.3" height="0.5" style="fill:#333"/><rect x="2.7" y="27.1" width="20.6" height="2" style="fill:url(#Sfumatura_senza_nome_2-10)"/><rect x="2.4" y="27.9" width="0.3" height="0.5" style="fill:#333"/><rect x="23.3" y="27.9" width="0.3" height="0.5" style="fill:#333"/><rect x="2.7" y="30.1" width="20.6" height="2" style="fill:url(#Sfumatura_senza_nome_2-11)"/><rect x="2.4" y="30.9" width="0.3" height="0.5" style="fill:#333"/><rect x="23.3" y="30.8" width="0.3" height="0.5" style="fill:#333"/><rect x="2.7" y="33" width="20.6" height="2" style="fill:url(#Sfumatura_senza_nome_2-12)"/><rect x="2.4" y="33.8" width="0.3" height="0.5" style="fill:#333"/><rect x="23.3" y="33.8" width="0.3" height="0.5" style="fill:#333"/><rect x="2.7" y="35.9" width="20.6" height="2" style="fill:url(#Sfumatura_senza_nome_2-13)"/><rect x="2.4" y="36.7" width="0.3" height="0.5" style="fill:#333"/><rect x="23.3" y="36.7" width="0.3" height="0.5" style="fill:#333"/><rect x="2.7" y="38.9" width="20.6" height="2" style="fill:url(#Sfumatura_senza_nome_2-14)"/><rect x="2.4" y="39.6" width="0.3" height="0.5" style="fill:#333"/><rect x="23.3" y="39.6" width="0.3" height="0.5" style="fill:#333"/><rect x="2.7" y="41.8" width="20.6" height="2" style="fill:url(#Sfumatura_senza_nome_2-15)"/><rect x="2.4" y="42.6" width="0.3" height="0.5" style="fill:#333"/><rect x="23.3" y="42.5" width="0.3" height="0.5" style="fill:#333"/><path d="M23.6,44V.4a.35.35,0,0,1,.1-.2h1.9c.1,0,.1.1.1.2V44a.35.35,0,0,1-.1.2H23.8A.22.22,0,0,1,23.6,44Z" style="fill:gray"/><line x1="23.7" y1="0.2" x2="25.7" y2="0.2" style="fill:none;stroke:#999;stroke-miterlimit:10;stroke-width:0.119999997317791px"/><path d="M23.7,44.2c-.1,0-.1-.1-.1-.2h0V.4c0-.1,0-.2.1-.2" style="fill:none;stroke:#4d4d4d;stroke-miterlimit:10;stroke-width:0.146899998188019px"/><line x1="25.7" y1="44.2" x2="23.7" y2="44.2" style="fill:none;stroke:#999;stroke-miterlimit:10;stroke-width:0.146899998188019px"/><path d="M25.7.2c.1,0,.1.1.1.2V44c0,.1,0,.2-.1.2h0" style="fill:none;stroke:#e6e6e6;stroke-miterlimit:10;stroke-width:0.146899998188019px"/></g></svg>