<?xml version="1.0" encoding="utf-8"?>
<!-- Generator: Adobe Illustrator 24.2.3, SVG Export Plug-In . SVG Version: 6.00 Build 0)  -->
<svg version="1.1" id="small_elements" xmlns="http://www.w3.org/2000/svg" xmlns:xlink="http://www.w3.org/1999/xlink" x="0px"
	 y="0px" viewBox="0 0 25.8 29.8" style="enable-background:new 0 0 25.8 29.8;" xml:space="preserve">
<g id="small_elements-2">
	<g id="_rulliera_">
		<path style="fill:#333333;" d="M22.7,1.4v27.3c0,0.2-0.2,0.5-0.4,0.5H3.5c-0.2,0-0.4-0.3-0.4-0.5V1.4C3.1,1.2,3.3,1,3.5,1h18.7
			C22.4,1,22.7,1.2,22.7,1.4z"/>
		<path style="fill:#808080;" d="M0.2,29.4V0.3c0-0.1,0-0.1,0.1-0.1l0,0h1.9c0.1,0,0.1,0,0.1,0.1v29.1c0,0.1,0,0.1-0.1,0.1h0H0.4
			C0.3,29.5,0.2,29.5,0.2,29.4z"/>
		<line style="fill:none;stroke:#999999;stroke-width:0.12;stroke-miterlimit:10;" x1="0.3" y1="0.2" x2="2.3" y2="0.2"/>
		<path style="fill:none;stroke:#4D4D4D;stroke-width:0.12;stroke-miterlimit:10;" d="M0.3,29.6c-0.1,0-0.1,0-0.1-0.1l0,0V0.3
			c0-0.1,0-0.1,0.1-0.1"/>
		<line style="fill:none;stroke:#999999;stroke-width:0.12;stroke-miterlimit:10;" x1="2.3" y1="29.6" x2="0.3" y2="29.6"/>
		<path style="fill:none;stroke:#E6E6E6;stroke-width:0.12;stroke-miterlimit:10;" d="M2.3,0.2c0.1,0,0.1,0,0.1,0.1v29.1
			c0,0.1,0,0.1-0.1,0.1l0,0"/>
		
			<linearGradient id="SVGID_1_" gradientUnits="userSpaceOnUse" x1="1033.5" y1="6456.1001" x2="1035.55" y2="6456.1001" gradientTransform="matrix(6.123234e-17 1 1 -6.123234e-17 -6443.25 -1026.8401)">
			<stop  offset="0" style="stop-color:#808080"/>
			<stop  offset="0.5" style="stop-color:#CCCCCC"/>
			<stop  offset="1" style="stop-color:#808080"/>
		</linearGradient>
		<rect x="2.7" y="6.7" style="fill:url(#SVGID_1_);" width="20.3" height="2.1"/>
		<rect x="2.4" y="7.4" style="fill:#333333;" width="0.3" height="0.5"/>
		<rect x="23" y="7.4" style="fill:#333333;" width="0.3" height="0.5"/>
		
			<linearGradient id="SVGID_2_" gradientUnits="userSpaceOnUse" x1="1030.5801" y1="6456.1099" x2="1032.62" y2="6456.1099" gradientTransform="matrix(6.123234e-17 1 1 -6.123234e-17 -6443.2598 -1026.8401)">
			<stop  offset="0" style="stop-color:#808080"/>
			<stop  offset="0.5" style="stop-color:#CCCCCC"/>
			<stop  offset="1" style="stop-color:#808080"/>
		</linearGradient>
		<rect x="2.7" y="3.7" style="fill:url(#SVGID_2_);" width="20.3" height="2.1"/>
		<rect x="2.4" y="4.5" style="fill:#333333;" width="0.3" height="0.5"/>
		<rect x="23" y="4.5" style="fill:#333333;" width="0.3" height="0.5"/>
		
			<linearGradient id="SVGID_3_" gradientUnits="userSpaceOnUse" x1="1027.65" y1="6456.1099" x2="1029.7" y2="6456.1099" gradientTransform="matrix(6.123234e-17 1 1 -6.123234e-17 -6443.2598 -1026.8301)">
			<stop  offset="0" style="stop-color:#808080"/>
			<stop  offset="0.5" style="stop-color:#CCCCCC"/>
			<stop  offset="1" style="stop-color:#808080"/>
		</linearGradient>
		<rect x="2.7" y="0.8" style="fill:url(#SVGID_3_);" width="20.3" height="2.1"/>
		<rect x="2.4" y="1.6" style="fill:#333333;" width="0.3" height="0.5"/>
		<rect x="23" y="1.6" style="fill:#333333;" width="0.3" height="0.5"/>
		
			<linearGradient id="SVGID_4_" gradientUnits="userSpaceOnUse" x1="1036.4301" y1="6456.1099" x2="1038.47" y2="6456.1099" gradientTransform="matrix(6.123234e-17 1 1 -6.123234e-17 -6443.2598 -1026.8301)">
			<stop  offset="0" style="stop-color:#808080"/>
			<stop  offset="0.5" style="stop-color:#CCCCCC"/>
			<stop  offset="1" style="stop-color:#808080"/>
		</linearGradient>
		<rect x="2.7" y="9.6" style="fill:url(#SVGID_4_);" width="20.3" height="2.1"/>
		<rect x="2.4" y="10.4" style="fill:#333333;" width="0.3" height="0.5"/>
		<rect x="23" y="10.4" style="fill:#333333;" width="0.3" height="0.5"/>
		
			<linearGradient id="SVGID_5_" gradientUnits="userSpaceOnUse" x1="1039.35" y1="6456.1099" x2="1041.4" y2="6456.1099" gradientTransform="matrix(6.123234e-17 1 1 -6.123234e-17 -6443.2598 -1026.8401)">
			<stop  offset="0" style="stop-color:#808080"/>
			<stop  offset="0.5" style="stop-color:#CCCCCC"/>
			<stop  offset="1" style="stop-color:#808080"/>
		</linearGradient>
		<rect x="2.7" y="12.5" style="fill:url(#SVGID_5_);" width="20.3" height="2.1"/>
		<rect x="2.4" y="13.3" style="fill:#333333;" width="0.4" height="0.5"/>
		<rect x="23" y="13.3" style="fill:#333333;" width="0.3" height="0.5"/>
		
			<linearGradient id="SVGID_6_" gradientUnits="userSpaceOnUse" x1="1042.28" y1="6456.1001" x2="1044.3301" y2="6456.1001" gradientTransform="matrix(6.123234e-17 1 1 -6.123234e-17 -6443.25 -1026.8401)">
			<stop  offset="0" style="stop-color:#808080"/>
			<stop  offset="0.5" style="stop-color:#CCCCCC"/>
			<stop  offset="1" style="stop-color:#808080"/>
		</linearGradient>
		<rect x="2.7" y="15.4" style="fill:url(#SVGID_6_);" width="20.3" height="2.1"/>
		<rect x="2.4" y="16.2" style="fill:#333333;" width="0.3" height="0.5"/>
		<rect x="23" y="16.2" style="fill:#333333;" width="0.3" height="0.5"/>
		
			<linearGradient id="SVGID_7_" gradientUnits="userSpaceOnUse" x1="1045.21" y1="6456.1099" x2="1047.25" y2="6456.1099" gradientTransform="matrix(6.123234e-17 1 1 -6.123234e-17 -6443.2598 -1026.8401)">
			<stop  offset="0" style="stop-color:#808080"/>
			<stop  offset="0.5" style="stop-color:#CCCCCC"/>
			<stop  offset="1" style="stop-color:#808080"/>
		</linearGradient>
		<rect x="2.7" y="18.4" style="fill:url(#SVGID_7_);" width="20.3" height="2.1"/>
		<rect x="2.4" y="19.1" style="fill:#333333;" width="0.3" height="0.5"/>
		<rect x="23" y="19.1" style="fill:#333333;" width="0.3" height="0.5"/>
		
			<linearGradient id="SVGID_8_" gradientUnits="userSpaceOnUse" x1="1048.13" y1="6456.1001" x2="1050.1799" y2="6456.1001" gradientTransform="matrix(6.123234e-17 1 1 -6.123234e-17 -6443.25 -1026.8401)">
			<stop  offset="0" style="stop-color:#808080"/>
			<stop  offset="0.5" style="stop-color:#CCCCCC"/>
			<stop  offset="1" style="stop-color:#808080"/>
		</linearGradient>
		<rect x="2.7" y="21.3" style="fill:url(#SVGID_8_);" width="20.3" height="2.1"/>
		<rect x="2.4" y="22.1" style="fill:#333333;" width="0.3" height="0.5"/>
		<rect x="23" y="22.1" style="fill:#333333;" width="0.3" height="0.5"/>
		
			<linearGradient id="SVGID_9_" gradientUnits="userSpaceOnUse" x1="1051.0601" y1="6456.1099" x2="1053.1" y2="6456.1099" gradientTransform="matrix(6.123234e-17 1 1 -6.123234e-17 -6443.2598 -1026.8301)">
			<stop  offset="0" style="stop-color:#808080"/>
			<stop  offset="0.5" style="stop-color:#CCCCCC"/>
			<stop  offset="1" style="stop-color:#808080"/>
		</linearGradient>
		<rect x="2.7" y="24.2" style="fill:url(#SVGID_9_);" width="20.3" height="2.1"/>
		<rect x="2.4" y="25" style="fill:#333333;" width="0.3" height="0.5"/>
		<rect x="23" y="25" style="fill:#333333;" width="0.3" height="0.5"/>
		
			<linearGradient id="SVGID_10_" gradientUnits="userSpaceOnUse" x1="1053.98" y1="6456.1099" x2="1056.03" y2="6456.1099" gradientTransform="matrix(6.123234e-17 1 1 -6.123234e-17 -6443.2598 -1026.8401)">
			<stop  offset="0" style="stop-color:#808080"/>
			<stop  offset="0.5" style="stop-color:#CCCCCC"/>
			<stop  offset="1" style="stop-color:#808080"/>
		</linearGradient>
		<rect x="2.7" y="27.1" style="fill:url(#SVGID_10_);" width="20.3" height="2.1"/>
		<rect x="2.4" y="27.9" style="fill:#333333;" width="0.3" height="0.5"/>
		<rect x="23" y="27.9" style="fill:#333333;" width="0.3" height="0.5"/>
		<path style="fill:#808080;" d="M23.3,29.4V0.3c0-0.1,0-0.1,0.1-0.1l0,0h1.9c0.1,0,0.1,0,0.1,0.1c0,0,0,0,0,0v29.1
			c0,0.1,0,0.1-0.1,0.1l0,0h-1.9C23.3,29.5,23.3,29.5,23.3,29.4L23.3,29.4z"/>
		<line style="fill:none;stroke:#999999;stroke-width:0.12;stroke-miterlimit:10;" x1="23.4" y1="0.2" x2="25.4" y2="0.2"/>
		<path style="fill:none;stroke:#4D4D4D;stroke-width:0.12;stroke-miterlimit:10;" d="M23.4,29.6c-0.1,0-0.1,0-0.1-0.1l0,0V0.3
			c0-0.1,0-0.1,0.1-0.1"/>
		<line style="fill:none;stroke:#999999;stroke-width:0.12;stroke-miterlimit:10;" x1="25.4" y1="29.6" x2="23.4" y2="29.6"/>
	</g>
</g>
</svg>
