<svg id="small_elements" data-name="small elements" xmlns="http://www.w3.org/2000/svg" xmlns:xlink="http://www.w3.org/1999/xlink" viewBox="0 0 25.8 64.9"><defs><linearGradient id="Sfumatura_senza_nome_2" x1="917.1" y1="6592.56" x2="919.15" y2="6592.56" gradientTransform="matrix(0, 1, 1, 0, -6579.66, -910.44)" gradientUnits="userSpaceOnUse"><stop offset="0" stop-color="gray"/><stop offset="0.5" stop-color="#ccc"/><stop offset="1" stop-color="gray"/></linearGradient><linearGradient id="Sfumatura_senza_nome_2-2" x1="914.18" y1="6592.57" x2="916.22" y2="6592.57" gradientTransform="matrix(0, 1, 1, 0, -6579.67, -910.44)" xlink:href="#Sfumatura_senza_nome_2"/><linearGradient id="Sfumatura_senza_nome_2-3" x1="911.25" y1="6592.57" x2="913.3" y2="6592.57" gradientTransform="matrix(0, 1, 1, 0, -6579.67, -910.43)" xlink:href="#Sfumatura_senza_nome_2"/><linearGradient id="Sfumatura_senza_nome_2-4" x1="920.03" y1="6592.57" x2="922.07" y2="6592.57" gradientTransform="matrix(0, 1, 1, 0, -6579.67, -910.43)" xlink:href="#Sfumatura_senza_nome_2"/><linearGradient id="Sfumatura_senza_nome_2-5" x1="922.95" y1="6592.57" x2="925" y2="6592.57" gradientTransform="matrix(0, 1, 1, 0, -6579.67, -910.44)" xlink:href="#Sfumatura_senza_nome_2"/><linearGradient id="Sfumatura_senza_nome_2-6" x1="925.88" y1="6592.56" x2="927.93" y2="6592.56" xlink:href="#Sfumatura_senza_nome_2"/><linearGradient id="Sfumatura_senza_nome_2-7" x1="928.81" y1="6592.57" x2="930.85" y2="6592.57" gradientTransform="matrix(0, 1, 1, 0, -6579.67, -910.44)" xlink:href="#Sfumatura_senza_nome_2"/><linearGradient id="Sfumatura_senza_nome_2-8" x1="931.73" y1="6592.56" x2="933.78" y2="6592.56" xlink:href="#Sfumatura_senza_nome_2"/><linearGradient id="Sfumatura_senza_nome_2-9" x1="934.66" y1="6592.57" x2="936.7" y2="6592.57" gradientTransform="matrix(0, 1, 1, 0, -6579.67, -910.43)" xlink:href="#Sfumatura_senza_nome_2"/><linearGradient id="Sfumatura_senza_nome_2-10" x1="937.58" y1="6592.57" x2="939.63" y2="6592.57" gradientTransform="matrix(0, 1, 1, 0, -6579.67, -910.44)" xlink:href="#Sfumatura_senza_nome_2"/><linearGradient id="Sfumatura_senza_nome_2-11" x1="940.52" y1="6592.56" x2="942.57" y2="6592.56" xlink:href="#Sfumatura_senza_nome_2"/><linearGradient id="Sfumatura_senza_nome_2-12" x1="943.45" y1="6592.57" x2="945.49" y2="6592.57" gradientTransform="matrix(0, 1, 1, 0, -6579.67, -910.44)" xlink:href="#Sfumatura_senza_nome_2"/><linearGradient id="Sfumatura_senza_nome_2-13" x1="946.37" y1="6592.56" x2="948.42" y2="6592.56" xlink:href="#Sfumatura_senza_nome_2"/><linearGradient id="Sfumatura_senza_nome_2-14" x1="949.3" y1="6592.57" x2="951.34" y2="6592.57" gradientTransform="matrix(0, 1, 1, 0, -6579.67, -910.43)" xlink:href="#Sfumatura_senza_nome_2"/><linearGradient id="Sfumatura_senza_nome_2-15" x1="952.22" y1="6592.57" x2="954.27" y2="6592.57" gradientTransform="matrix(0, 1, 1, 0, -6579.67, -910.44)" xlink:href="#Sfumatura_senza_nome_2"/><linearGradient id="Sfumatura_senza_nome_2-16" x1="955.07" y1="6592.57" x2="957.11" y2="6592.57" gradientTransform="matrix(0, 1, 1, 0, -6579.67, -910.43)" xlink:href="#Sfumatura_senza_nome_2"/><linearGradient id="Sfumatura_senza_nome_2-17" x1="957.99" y1="6592.57" x2="960.04" y2="6592.57" gradientTransform="matrix(0, 1, 1, 0, -6579.67, -910.44)" xlink:href="#Sfumatura_senza_nome_2"/><linearGradient id="Sfumatura_senza_nome_2-18" x1="960.93" y1="6592.56" x2="962.98" y2="6592.56" xlink:href="#Sfumatura_senza_nome_2"/><linearGradient id="Sfumatura_senza_nome_2-19" x1="963.86" y1="6592.57" x2="965.9" y2="6592.57" gradientTransform="matrix(0, 1, 1, 0, -6579.67, -910.44)" xlink:href="#Sfumatura_senza_nome_2"/><linearGradient id="Sfumatura_senza_nome_2-20" x1="966.78" y1="6592.56" x2="968.83" y2="6592.56" xlink:href="#Sfumatura_senza_nome_2"/><linearGradient id="Sfumatura_senza_nome_2-21" x1="969.71" y1="6592.57" x2="971.74" y2="6592.57" gradientTransform="matrix(0, 1, 1, 0, -6579.67, -910.43)" xlink:href="#Sfumatura_senza_nome_2"/><linearGradient id="Sfumatura_senza_nome_2-22" x1="972.62" y1="6592.57" x2="974.67" y2="6592.57" gradientTransform="matrix(0, 1, 1, 0, -6579.67, -910.44)" xlink:href="#Sfumatura_senza_nome_2"/></defs><g id="rullieraL"><path d="M22.9,2V62.8c0,.6-.2,1-.5,1H3.4c-.2,0-.5-.4-.5-1V2c0-.6.2-1,.5-1H22.5C22.7,1,22.9,1.4,22.9,2Z" style="fill:#333"/><path d="M.1,64.1V.5A.44.44,0,0,1,.2.2H2.1c.1,0,.1.1.1.3V64.1a.44.44,0,0,1-.1.3H.3C.2,64.5.1,64.3.1,64.1Z" style="fill:gray"/><line x1="0.2" y1="0.2" x2="2.2" y2="0.2" style="fill:none;stroke:#999;stroke-miterlimit:10;stroke-width:0.119999997317791px"/><path d="M.2,64.5c-.1,0-.1-.1-.1-.2h0V.4C.1.3.1.2.2.2" style="fill:none;stroke:#4d4d4d;stroke-miterlimit:10;stroke-width:0.177499994635582px"/><line x1="2.2" y1="64.5" x2="0.2" y2="64.5" style="fill:none;stroke:#999;stroke-miterlimit:10;stroke-width:0.177499994635582px"/><path d="M2.2.2c.1,0,.1.1.1.2V64.2c0,.1,0,.2-.1.2h0" style="fill:none;stroke:#e6e6e6;stroke-miterlimit:10;stroke-width:0.177499994635582px"/><rect x="2.6" y="6.7" width="20.6" height="2.1" style="fill:url(#Sfumatura_senza_nome_2)"/><rect x="2.3" y="7.4" width="0.3" height="0.5" style="fill:#333"/><rect x="23.2" y="7.4" width="0.3" height="0.5" style="fill:#333"/><rect x="2.6" y="3.7" width="20.6" height="2.1" style="fill:url(#Sfumatura_senza_nome_2-2)"/><rect x="2.3" y="4.5" width="0.3" height="0.5" style="fill:#333"/><rect x="23.2" y="4.5" width="0.3" height="0.5" style="fill:#333"/><rect x="2.6" y="0.8" width="20.6" height="2.1" style="fill:url(#Sfumatura_senza_nome_2-3)"/><rect x="2.3" y="1.6" width="0.3" height="0.5" style="fill:#333"/><rect x="23.2" y="1.6" width="0.3" height="0.5" style="fill:#333"/><rect x="2.6" y="9.6" width="20.6" height="2.1" style="fill:url(#Sfumatura_senza_nome_2-4)"/><rect x="2.3" y="10.4" width="0.3" height="0.5" style="fill:#333"/><rect x="23.2" y="10.4" width="0.3" height="0.5" style="fill:#333"/><rect x="2.6" y="12.5" width="20.6" height="2.1" style="fill:url(#Sfumatura_senza_nome_2-5)"/><rect x="2.3" y="13.3" width="0.3" height="0.5" style="fill:#333"/><rect x="23.2" y="13.3" width="0.3" height="0.5" style="fill:#333"/><rect x="2.6" y="15.4" width="20.6" height="2" style="fill:url(#Sfumatura_senza_nome_2-6)"/><rect x="2.3" y="16.2" width="0.3" height="0.5" style="fill:#333"/><rect x="23.2" y="16.2" width="0.3" height="0.5" style="fill:#333"/><rect x="2.6" y="18.4" width="20.6" height="2" style="fill:url(#Sfumatura_senza_nome_2-7)"/><rect x="2.3" y="19.1" width="0.3" height="0.5" style="fill:#333"/><rect x="23.2" y="19.1" width="0.3" height="0.5" style="fill:#333"/><rect x="2.6" y="21.3" width="20.6" height="2" style="fill:url(#Sfumatura_senza_nome_2-8)"/><rect x="2.3" y="22.1" width="0.3" height="0.5" style="fill:#333"/><rect x="23.2" y="22.1" width="0.3" height="0.5" style="fill:#333"/><rect x="2.6" y="24.2" width="20.6" height="2" style="fill:url(#Sfumatura_senza_nome_2-9)"/><rect x="2.3" y="25" width="0.3" height="0.5" style="fill:#333"/><rect x="23.2" y="25" width="0.3" height="0.5" style="fill:#333"/><rect x="2.6" y="27.1" width="20.6" height="2" style="fill:url(#Sfumatura_senza_nome_2-10)"/><rect x="2.3" y="27.9" width="0.3" height="0.5" style="fill:#333"/><rect x="23.2" y="27.9" width="0.3" height="0.5" style="fill:#333"/><rect x="2.6" y="30.1" width="20.6" height="2" style="fill:url(#Sfumatura_senza_nome_2-11)"/><rect x="2.3" y="30.9" width="0.3" height="0.5" style="fill:#333"/><rect x="23.2" y="30.8" width="0.3" height="0.5" style="fill:#333"/><rect x="2.6" y="33" width="20.6" height="2" style="fill:url(#Sfumatura_senza_nome_2-12)"/><rect x="2.3" y="33.8" width="0.3" height="0.5" style="fill:#333"/><rect x="23.2" y="33.8" width="0.3" height="0.5" style="fill:#333"/><rect x="2.6" y="35.9" width="20.6" height="2" style="fill:url(#Sfumatura_senza_nome_2-13)"/><rect x="2.3" y="36.7" width="0.3" height="0.5" style="fill:#333"/><rect x="23.2" y="36.7" width="0.3" height="0.5" style="fill:#333"/><rect x="2.6" y="38.9" width="20.6" height="2" style="fill:url(#Sfumatura_senza_nome_2-14)"/><rect x="2.3" y="39.6" width="0.3" height="0.5" style="fill:#333"/><rect x="23.2" y="39.6" width="0.3" height="0.5" style="fill:#333"/><rect x="2.6" y="41.8" width="20.6" height="2" style="fill:url(#Sfumatura_senza_nome_2-15)"/><rect x="2.3" y="42.6" width="0.3" height="0.5" style="fill:#333"/><rect x="23.2" y="42.5" width="0.3" height="0.5" style="fill:#333"/><rect x="2.6" y="44.6" width="20.6" height="2" style="fill:url(#Sfumatura_senza_nome_2-16)"/><rect x="2.3" y="45.4" width="0.3" height="0.5" style="fill:#333"/><rect x="23.2" y="45.4" width="0.3" height="0.5" style="fill:#333"/><rect x="2.6" y="47.5" width="20.6" height="2" style="fill:url(#Sfumatura_senza_nome_2-17)"/><rect x="2.3" y="48.3" width="0.3" height="0.5" style="fill:#333"/><rect x="23.2" y="48.3" width="0.3" height="0.5" style="fill:#333"/><rect x="2.6" y="50.5" width="20.6" height="2" style="fill:url(#Sfumatura_senza_nome_2-18)"/><rect x="2.3" y="51.3" width="0.3" height="0.5" style="fill:#333"/><rect x="23.2" y="51.3" width="0.3" height="0.5" style="fill:#333"/><rect x="2.6" y="53.4" width="20.6" height="2" style="fill:url(#Sfumatura_senza_nome_2-19)"/><rect x="2.3" y="54.2" width="0.3" height="0.5" style="fill:#333"/><rect x="23.2" y="54.2" width="0.3" height="0.5" style="fill:#333"/><rect x="2.6" y="56.3" width="20.6" height="2" style="fill:url(#Sfumatura_senza_nome_2-20)"/><rect x="2.3" y="57.1" width="0.3" height="0.5" style="fill:#333"/><rect x="23.2" y="57.1" width="0.3" height="0.5" style="fill:#333"/><rect x="2.6" y="59.3" width="20.6" height="2" style="fill:url(#Sfumatura_senza_nome_2-21)"/><rect x="2.3" y="60" width="0.3" height="0.5" style="fill:#333"/><rect x="23.2" y="60" width="0.3" height="0.5" style="fill:#333"/><rect x="2.6" y="62.2" width="20.6" height="2" style="fill:url(#Sfumatura_senza_nome_2-22)"/><rect x="2.3" y="63" width="0.3" height="0.5" style="fill:#333"/><rect x="23.2" y="63" width="0.3" height="0.5" style="fill:#333"/><path d="M23.5,64.1V.5a.44.44,0,0,1,.1-.3h1.9c.1,0,.1.1.1.3V64.1a.44.44,0,0,1-.1.3H23.7C23.6,64.5,23.5,64.3,23.5,64.1Z" style="fill:gray"/><line x1="23.6" y1="0.2" x2="25.6" y2="0.2" style="fill:none;stroke:#999;stroke-miterlimit:10;stroke-width:0.119999997317791px"/><path d="M23.6,64.5c-.1,0-.1-.1-.1-.2h0V.4c0-.1,0-.2.1-.2" style="fill:none;stroke:#4d4d4d;stroke-miterlimit:10;stroke-width:0.177499994635582px"/><line x1="25.6" y1="64.5" x2="23.6" y2="64.5" style="fill:none;stroke:#999;stroke-miterlimit:10;stroke-width:0.177499994635582px"/><path d="M25.6.2c.1,0,.1.1.1.2V64.2c0,.1,0,.2-.1.2h0" style="fill:none;stroke:#e6e6e6;stroke-miterlimit:10;stroke-width:0.177499994635582px"/></g></svg>