<?xml version="1.0" encoding="UTF-8" standalone="no"?>
<svg xmlns:dc="http://purl.org/dc/elements/1.1/" xmlns:cc="http://creativecommons.org/ns#" xmlns:rdf="http://www.w3.org/1999/02/22-rdf-syntax-ns#" xmlns:svg="http://www.w3.org/2000/svg" xmlns="http://www.w3.org/2000/svg" xmlns:sodipodi="http://sodipodi.sourceforge.net/DTD/sodipodi-0.dtd" xmlns:inkscape="http://www.inkscape.org/namespaces/inkscape" inkscape:version="1.0 (4035a4fb49, 2020-05-01)" sodipodi:docname="catenaria.svg" version="1.1" viewBox="0 0 22.25 52.05" data-name="small elements" id="small_elements">
  <metadata id="metadata167">
    <rdf:RDF>
      <cc:Work rdf:about="">
        <dc:format>image/svg+xml</dc:format>
        <dc:type rdf:resource="http://purl.org/dc/dcmitype/StillImage" />
      </cc:Work>
    </rdf:RDF>
  </metadata>
  <sodipodi:namedview inkscape:current-layer="_catenaria_" inkscape:window-maximized="1" inkscape:window-y="-8" inkscape:window-x="1912" inkscape:cy="30.763928" inkscape:cx="7.5979138" inkscape:zoom="7.9493636" showgrid="false" id="namedview165" inkscape:window-height="1017" inkscape:window-width="1920" inkscape:pageshadow="2" inkscape:pageopacity="0" guidetolerance="10" gridtolerance="10" objecttolerance="10" borderopacity="1" bordercolor="#666666" pagecolor="#ffffff" />
  <defs id="defs31" />
  <g data-name="&lt;catenaria&gt;" id="_catenaria_">
    <rect id="rect33" style="fill:#4d4d4d" transform="translate(-24.06 27.98) rotate(-90)" rx="0.19" height="2.86" width="52.04" y="24.59" x="-24.06" />
    <rect id="rect35" style="fill:#b3b3b3" transform="translate(-24.96 27.05) rotate(-90)" rx="0.09" height="0.59" width="52.01" y="25.71" x="-24.96" />
    <rect id="rect37" style="fill:#b3b3b3" transform="translate(-24.05 27.96) rotate(-90)" rx="0.09" height="0.59" width="52.01" y="25.71" x="-24.05" />
    <rect id="rect39" style="fill:#b3b3b3" transform="translate(-23.14 28.87) rotate(-90)" rx="0.09" height="0.59" width="52.01" y="25.71" x="-23.14" />
    <rect id="rect41" style="fill:#b3b3b3" rx="0.1" height="4.91" width="0.55" y="47.1" x="-0.01" />
    <rect id="rect43" style="fill:#b3b3b3" rx="0.1" height="4.91" width="0.55" y="47.1" x="3.39" />
    <rect id="rect45" style="fill:#b3b3b3" rx="0.1" height="4.91" width="0.55" x="-0.01" />
    <rect id="rect47" style="fill:#b3b3b3" rx="0.1" height="4.91" width="0.55" x="3.39" />
    <rect id="rect49" style="fill:#4d4d4d" transform="translate(-14.62 37.42) rotate(-90)" rx="0.2" height="2.9" width="52.04" y="24.57" x="-14.62" />
    <rect id="rect51" style="fill:#b3b3b3" transform="translate(-15.54 36.47) rotate(-90)" rx="0.09" height="0.6" width="52.01" y="25.71" x="-15.54" />
    <rect id="rect53" style="fill:#b3b3b3" transform="translate(-14.62 37.4) rotate(-90)" rx="0.09" height="0.6" width="52.01" y="25.71" x="-14.62" />
    <rect id="rect55" style="fill:#b3b3b3" transform="translate(-13.69 38.32) rotate(-90)" rx="0.09" height="0.6" width="52.01" y="25.71" x="-13.69" />
    <rect id="rect57" style="fill:#b3b3b3" rx="0.1" height="4.91" width="0.55" y="47.1" x="9.39" />
    <rect id="rect59" style="fill:#b3b3b3" rx="0.1" height="4.91" width="0.55" y="47.1" x="12.85" />
    <rect id="rect61" style="fill:#b3b3b3" rx="0.1" height="4.91" width="0.55" x="9.39" />
    <rect id="rect63" style="fill:#b3b3b3" rx="0.1" height="4.91" width="0.55" x="12.85" />
    <rect id="rect65" style="fill:#4d4d4d" transform="translate(-5.76 46.28) rotate(-90)" rx="0.19" height="2.86" width="52.04" y="24.59" x="-5.76" />
    <rect id="rect67" style="fill:#b3b3b3" transform="translate(-6.66 45.35) rotate(-90)" rx="0.09" height="0.59" width="52.01" y="25.71" x="-6.66" />
    <rect id="rect69" style="fill:#b3b3b3" transform="translate(-5.75 46.26) rotate(-90)" rx="0.09" height="0.59" width="52.01" y="25.71" x="-5.75" />
    <rect id="rect71" style="fill:#b3b3b3" transform="translate(-4.84 47.17) rotate(-90)" rx="0.09" height="0.59" width="52.01" y="25.71" x="-4.84" />
    <rect id="rect73" style="fill:#b3b3b3" rx="0.1" height="4.91" width="0.55" y="47.1" x="18.29" />
    <rect id="rect75" style="fill:#b3b3b3" rx="0.1" height="4.91" width="0.55" y="47.1" x="21.69" />
    <rect id="rect77" style="fill:#b3b3b3" rx="0.1" height="4.91" width="0.55" x="18.29" />
    <rect id="rect79" style="fill:#b3b3b3" rx="0.1" height="4.91" width="0.55" x="21.69" />
    <rect id="rect81" style="fill:#b3b3b3" transform="translate(43.72 85.43) rotate(-180)" rx="0.09" height="7.86" width="0.29" y="38.78" x="21.71" />
    <rect id="rect83" style="fill:#b3b3b3" transform="translate(37.46 85.43) rotate(-180)" rx="0.09" height="7.86" width="0.29" y="38.78" x="18.58" />
    <rect id="rect85" style="fill:#b3b3b3" transform="translate(25.87 85.43) rotate(-180)" rx="0.09" height="7.86" width="0.29" y="38.78" x="12.79" />
    <rect id="rect87" style="fill:#b3b3b3" transform="translate(19.6 85.43) rotate(-180)" rx="0.09" height="7.86" width="0.29" y="38.78" x="9.65" />
    <rect id="rect89" style="fill:#b3b3b3" transform="translate(7.13 85.91) rotate(-180)" rx="0.09" height="7.86" width="0.29" y="39.03" x="3.42" />
    <rect id="rect91" style="fill:#b3b3b3" transform="translate(0.78 85.91) rotate(-180)" rx="0.09" height="7.86" width="0.29" y="39.03" x="0.24" />
    <rect id="rect93" style="fill:#a1a0a0;fill-opacity:1" transform="translate(58.68 27.23) rotate(90)" height="4.56" width="0.85" y="40.68" x="15.3" />
    <rect id="rect97" style="fill:#a1a0a0;fill-opacity:1" transform="translate(-35.91 50.01) rotate(-90)" height="4.24" width="0.85" y="40.84" x="6.62" />
    <rect id="rect145" style="fill:none" transform="translate(-25.37 52.89) rotate(-90)" rx="0.48" height="0.97" width="3.11" y="38.65" x="12.21" />
    <rect id="rect147" style="fill:#817e7e;fill-opacity:1" transform="translate(-29.45 56.46) rotate(-90)" height="0.85" width="1.39" y="42.53" x="12.81" />
    <rect id="rect149" style="fill:#817e7e;fill-opacity:1" transform="translate(-39.07 46.84) rotate(-90)" height="0.39" width="4.52" y="42.76" x="1.62" />
    <rect id="rect151" style="fill:#817e7e;fill-opacity:1" transform="translate(-38.45 47.46) rotate(-90)" height="0.85" width="1.39" y="42.53" x="3.81" />
    <rect id="rect153" style="fill:#817e7e;fill-opacity:1" transform="translate(-29.7 56.21) rotate(-90)" height="0.39" width="4.52" y="42.76" x="10.99" />
    <rect id="rect155" style="fill:#817e7e;fill-opacity:1" transform="translate(52.16 33.75) rotate(90)" height="0.85" width="1.39" y="42.53" x="8.51" />
    <rect id="rect157" style="fill:#817e7e;fill-opacity:1" transform="translate(52.42 33.5) rotate(90)" height="0.39" width="4.52" y="42.76" x="7.2" />
    <rect id="rect159" style="fill:#817e7e;fill-opacity:1" transform="translate(61.11 24.8) rotate(90)" height="0.85" width="1.39" y="42.53" x="17.46" />
    <rect id="rect161" style="fill:#817e7e;fill-opacity:1" transform="translate(61.35 24.57) rotate(90)" height="0.39" width="4.52" y="42.76" x="16.13" />
  </g>
</svg>
