<svg id="small_elements" data-name="small elements" xmlns="http://www.w3.org/2000/svg" viewBox="0 0 30.65 54.95"><g id="_traslo_" data-name="&lt;traslo&gt;"><rect x="11.43" y="39.28" width="29.17" height="2.18" rx="0.15" transform="translate(66.38 14.35) rotate(90)" style="fill:gray"/><rect x="24.47" y="22.35" width="3.22" height="3.65" rx="0.06" transform="translate(50.25 -1.9) rotate(90)" style="fill:gray"/><rect x="-12.72" y="39.28" width="29.17" height="2.18" rx="0.15" transform="translate(42.23 38.5) rotate(90)" style="fill:gray"/><rect x="0.21" y="22.35" width="3.22" height="3.65" rx="0.06" transform="translate(25.99 22.35) rotate(90)" style="fill:gray"/><rect x="-1.27" y="18.34" width="6.26" height="2.18" rx="0.07" transform="translate(21.3 17.57) rotate(90)" style="fill:gray"/><rect x="22.88" y="18.34" width="6.26" height="2.18" rx="0.07" transform="translate(45.45 -6.58) rotate(90)" style="fill:gray"/><rect x="2.01" y="17.54" width="4.61" height="2.72" rx="0.07" transform="translate(23.21 14.59) rotate(90)" style="fill:gray"/><rect x="21.15" y="17.54" width="4.61" height="2.72" rx="0.07" transform="translate(42.36 -4.56) rotate(90)" style="fill:gray"/><rect x="5.77" y="0.34" width="16.59" height="15.91" rx="0.72" transform="translate(5.77 22.36) rotate(-90)" style="fill:gray"/><line x1="27" y1="54.95" x2="25.02" y2="54.95" style="fill:none;stroke:#999;stroke-miterlimit:10;stroke-width:0.11510850606362px"/><path d="M27,25.72a.09.09,0,0,1,.1.1v29a.09.09,0,0,1-.1.1" style="fill:none;stroke:#4d4d4d;stroke-miterlimit:10;stroke-width:0.11510850606362px"/><line x1="25.02" y1="25.72" x2="27" y2="25.72" style="fill:none;stroke:#999;stroke-miterlimit:10;stroke-width:0.11510850606362px"/><path d="M25,55a.1.1,0,0,1-.11-.1v-29a.1.1,0,0,1,.11-.1" style="fill:none;stroke:#e6e6e6;stroke-miterlimit:10;stroke-width:0.11510850606362px"/><line x1="27" y1="22.56" x2="25.02" y2="22.56" style="fill:none;stroke:#999;stroke-miterlimit:10;stroke-width:0.101658475458138px"/><path d="M27,16.3c.06,0,.11,0,.11,0v6.21s-.05,0-.11,0" style="fill:none;stroke:#4d4d4d;stroke-miterlimit:10;stroke-width:0.101658475458138px"/><line x1="25.02" y1="16.3" x2="27" y2="16.3" style="fill:none;stroke:#999;stroke-miterlimit:10;stroke-width:0.101658475458138px"/><path d="M25,22.56c-.06,0-.11,0-.11,0V16.33s.05,0,.11,0" style="fill:none;stroke:#e6e6e6;stroke-miterlimit:10;stroke-width:0.101658475458138px"/><line x1="2.81" y1="54.95" x2="0.83" y2="54.95" style="fill:none;stroke:#999;stroke-miterlimit:10;stroke-width:0.11510850606362px"/><path d="M2.81,25.72a.1.1,0,0,1,.11.1v29a.1.1,0,0,1-.11.1" style="fill:none;stroke:#4d4d4d;stroke-miterlimit:10;stroke-width:0.11510850606362px"/><line x1="0.83" y1="25.72" x2="2.81" y2="25.72" style="fill:none;stroke:#999;stroke-miterlimit:10;stroke-width:0.11510850606362px"/><path d="M.83,55a.1.1,0,0,1-.1-.1v-29a.1.1,0,0,1,.1-.1" style="fill:none;stroke:#e6e6e6;stroke-miterlimit:10;stroke-width:0.11510850606362px"/><line x1="5.63" y1="21.21" x2="2.99" y2="21.21" style="fill:none;stroke:#999;stroke-miterlimit:10;stroke-width:0.050939036337921px"/><path d="M5.63,16.59s0,0,0,.06V21.1c0,.11,0,.11,0,.11" style="fill:none;stroke:#4d4d4d;stroke-miterlimit:10;stroke-width:0.050939036337921px"/><line x1="2.99" y1="16.59" x2="5.63" y2="16.59" style="fill:none;stroke:#999;stroke-miterlimit:10;stroke-width:0.050939036337921px"/><path d="M3,21.21s0,0,0-.06V16.64c0-.06,0-.05,0-.05" style="fill:none;stroke:#e6e6e6;stroke-miterlimit:10;stroke-width:0.050939036337921px"/><line x1="21.02" y1="16.59" x2="6.93" y2="16.59" style="fill:none;stroke:#999;stroke-miterlimit:10;stroke-width:0.101658475458138px"/><path d="M21,0c.58,0,1,.21,1,.75v14.8c0,.89-.45,1-1,1" style="fill:none;stroke:#4d4d4d;stroke-miterlimit:10;stroke-width:0.101658475458138px"/><line x1="6.93" y1="0.01" x2="21.02" y2="0.01" style="fill:none;stroke:#999;stroke-miterlimit:10;stroke-width:0.101658475458138px"/><path d="M6.93,16.59c-.58,0-.83-.41-.83-1.14V.84A.77.77,0,0,1,6.93,0" style="fill:none;stroke:#e6e6e6;stroke-miterlimit:10;stroke-width:0.101658475458138px"/><line x1="24.78" y1="21.21" x2="22.13" y2="21.21" style="fill:none;stroke:#999;stroke-miterlimit:10;stroke-width:0.050939036337921px"/><path d="M24.78,16.59s0,0,0,.06V21.1c0,.11,0,.11,0,.11" style="fill:none;stroke:#4d4d4d;stroke-miterlimit:10;stroke-width:0.050939036337921px"/><line x1="22.13" y1="16.59" x2="24.78" y2="16.59" style="fill:none;stroke:#999;stroke-miterlimit:10;stroke-width:0.050939036337921px"/><path d="M22.13,21.21s0,0,0-.06V16.64c0-.06,0-.05,0-.05" style="fill:none;stroke:#e6e6e6;stroke-miterlimit:10;stroke-width:0.050939036337921px"/><circle cx="25.56" cy="10.08" r="4.9" style="fill:gray"/><circle cx="25.56" cy="10.08" r="4.9" style="fill:none;stroke:#ccc;stroke-miterlimit:10;stroke-width:0.358628493127604px"/><rect x="0.25" y="7.14" width="7.82" height="3.91" rx="0.24" transform="translate(-4.93 13.25) rotate(-90)" style="fill:gray"/><line x1="5.81" y1="13" x2="2.4" y2="13" style="fill:none;stroke:#999;stroke-miterlimit:10;stroke-width:0.078892223996295px"/><path d="M5.87,5.18a.27.27,0,0,1,.24.24v7.26c0,.17-.23.32-.3.32" style="fill:none;stroke:#4d4d4d;stroke-miterlimit:10;stroke-width:0.079498622412216px"/><line x1="2.5" y1="5.18" x2="5.87" y2="5.18" style="fill:none;stroke:#999;stroke-miterlimit:10;stroke-width:0.079498622412216px"/><path d="M2.4,13s-.2-.06-.2-.38V5.55c0-.1,0-.37.3-.37" style="fill:none;stroke:#e6e6e6;stroke-miterlimit:10;stroke-width:0.079498622412216px"/><circle cx="25.56" cy="10.08" r="2.1" style="fill:#ccc"/><path d="M14.06,6A3.12,3.12,0,1,0,17.18,9.1,3.11,3.11,0,0,0,14.06,6Z" style="fill:#010a10"/><path d="M14.06,10.55A1.46,1.46,0,1,1,15.52,9.1,1.46,1.46,0,0,1,14.06,10.55Z" style="fill:#ffdc00"/><rect x="11.54" y="10.73" width="4.61" height="16.34" rx="0.16" transform="translate(32.74 5.05) rotate(90)" style="fill:#e4e4e4;stroke:#4d4d4d;stroke-miterlimit:10;stroke-width:0.210327723781278px"/><path d="M7.37,19.87H6.52l.77-2.06h.89L9,19.87H8.12l-.07-.26H7.44Zm.54-.75-.1-.36a2.56,2.56,0,0,1,0-.27h0l-.15.63Z" style="fill:#010a10"/><path d="M11,17.81V19c0,.6-.41.87-1,.87s-1-.27-1-.87V17.81h.81V19c0,.17,0,.31.22.31s.22-.14.22-.31V17.81Z" style="fill:#010a10"/><polygon points="11.16 17.8 12.85 17.8 12.85 18.46 12.41 18.44 12.41 19.85 11.6 19.85 11.6 18.44 11.16 18.46 11.16 17.8" style="fill:#010a10"/><polygon points="17.3 17.9 16.96 17.9 16.33 19.45 15.74 17.9 15.39 17.9 15.39 17.93 15.24 19.9 15.51 19.9 15.65 18.32 16.26 19.9 16.39 19.9 17.04 18.32 17.13 19.9 17.41 19.9 17.3 17.9" style="fill:#010a10"/><polygon points="18.93 17.9 18.93 18.75 17.84 18.75 17.84 17.9 17.57 17.9 17.57 19.9 17.84 19.9 17.84 18.99 18.93 18.99 18.93 19.9 19.2 19.9 19.2 17.9 18.93 17.9" style="fill:#010a10"/><path d="M20.45,17.9H20.2v0l-.94,2h.29l.24-.51h1l.23.51h.3Zm-.56,1.25.42-.93.42.93Z" style="fill:#010a10"/><path d="M14,17.79a1.11,1.11,0,1,0,1.11,1.11A1.11,1.11,0,0,0,14,17.79Z" style="fill:#010a10"/><path d="M14,19.42a.52.52,0,0,1,0-1,.52.52,0,0,1,0,1Z" style="fill:#ffdc00"/></g></svg>