<?xml version="1.0" encoding="utf-8"?>
<!-- Generator: Adobe Illustrator 24.2.3, SVG Export Plug-In . SVG Version: 6.00 Build 0)  -->
<svg version="1.1"
	 id="svg174" inkscape:version="1.0 (4035a4fb49, 2020-05-01)" sodipodi:docname="NavettaShade.svg" xmlns:cc="http://creativecommons.org/ns#" xmlns:dc="http://purl.org/dc/elements/1.1/" xmlns:inkscape="http://www.inkscape.org/namespaces/inkscape" xmlns:rdf="http://www.w3.org/1999/02/22-rdf-syntax-ns#" xmlns:sodipodi="http://sodipodi.sourceforge.net/DTD/sodipodi-0.dtd" xmlns:svg="http://www.w3.org/2000/svg"
	 xmlns="http://www.w3.org/2000/svg" xmlns:xlink="http://www.w3.org/1999/xlink" x="0px" y="0px" viewBox="0 0 58 61.9"
	 style="enable-background:new 0 0 58 61.9;" xml:space="preserve">
<sodipodi:namedview  bordercolor="#666666" borderopacity="1" gridtolerance="10" guidetolerance="10" id="namedview176" inkscape:current-layer="svg174" inkscape:cx="3.3919545" inkscape:cy="54.99321" inkscape:document-rotation="0" inkscape:pageopacity="0" inkscape:pageshadow="2" inkscape:window-height="1001" inkscape:window-maximized="1" inkscape:window-width="1920" inkscape:window-x="-9" inkscape:window-y="-9" inkscape:zoom="5.9769596" objecttolerance="10" pagecolor="#ffffff" showgrid="false">
	<sodipodi:guide  id="guide1408" orientation="0,61.200001" position="-1.9504042,1.9668405"></sodipodi:guide>
	<sodipodi:guide  id="guide1410" orientation="58.099998,0" position="-1.9344318,1.9668405"></sodipodi:guide>
	<sodipodi:guide  id="guide1412" orientation="0,-61.200001" position="-1.9344318,1.9495991"></sodipodi:guide>
	<sodipodi:guide  id="guide1414" orientation="-58.099998,0" position="-1.9504042,1.9495991"></sodipodi:guide>
</sodipodi:namedview>
<g id="g399">
	<rect id="rect41" x="25.1" y="10" style="fill:#333333;" width="3.8" height="41.7"/>
	<path id="rect43" style="fill:#333333;" d="M1.2,20.1h54.5c0.6,0,1.2,0.5,1.2,1.2v20.1c0,0.6-0.5,1.2-1.2,1.2H1.2
		c-0.6,0-1.2-0.5-1.2-1.2v-20C0,20.8,0.6,20.1,1.2,20.1z"/>
	<path id="rect45" style="fill:#333333;" d="M13,49.6h29.4c0.3,0,0.5,0.2,0.5,0.5v1c0,0.3-0.2,0.5-0.5,0.5H12.9
		c-0.3,0-0.5-0.2-0.5-0.5v-1C12.5,49.8,12.7,49.6,13,49.6z"/>
	<path id="rect47" style="fill:#333333;" d="M13,46.6h29.4c0.3,0,0.5,0.2,0.5,0.5v1c0,0.3-0.2,0.5-0.5,0.5H12.9
		c-0.3,0-0.5-0.2-0.5-0.5v-1C12.5,46.8,12.7,46.6,13,46.6z"/>
	<path id="rect49" style="fill:#FFFFFF;" d="M55.9,8.9H0.4C0.2,8.9,0,8.7,0,8.5V7.2C0,7,0.2,6.8,0.4,6.8h55.5c0.2,0,0.4,0.2,0.4,0.4
		v1.2C56.3,8.6,56.2,8.9,55.9,8.9z"/>
	<path id="rect51" style="fill:#FFFFFF;" d="M56.1,11.6H0.3c-0.1,0-0.3-0.1-0.3-0.3V9.4c0-0.1,0.1-0.3,0.3-0.3h55.8
		c0.1,0,0.3,0.1,0.3,0.3v2C56.2,11.6,56.1,11.6,56.1,11.6z"/>
	<path id="rect53" style="fill:#FFFFFF;" d="M55.4,56.4H0.9c-0.5,0-0.8-0.3-0.8-0.8v-1.4c0-0.5,0.4-0.8,0.8-0.8h54.5
		c0.5,0,0.8,0.4,0.8,0.8v1.4C56.2,56.1,55.9,56.4,55.4,56.4z"/>
	<path id="path55" style="fill:#FFFFFF;" d="M55.7,56.4V9.2h1.7c0.3,0,0.6,0.3,0.6,0.6v46c0,0.3-0.3,0.6-0.6,0.6H55.7z"/>
	
		<linearGradient id="path57_1_" gradientUnits="userSpaceOnUse" x1="5849.8169" y1="961.3353" x2="5849.8169" y2="987.3353" gradientTransform="matrix(0.1888 0 0 0.1888 -1075.9955 -179.5592)">
		<stop  offset="0" style="stop-color:#FFFFFF"/>
		<stop  offset="0.28" style="stop-color:#FBFBFB"/>
		<stop  offset="0.57" style="stop-color:#EEEEEE"/>
		<stop  offset="0.86" style="stop-color:#DADADA"/>
		<stop  offset="1" style="stop-color:#CDCDCD"/>
	</linearGradient>
	<path id="path57" style="fill:url(#path57_1_);" d="M53.7,6.7c-2.8-3-12.1-4.9-16.5-4.9H17.9C13.5,1.8,6,3.7,3.2,6.7H53.7z"/>
	<path id="path59" style="fill:#FFFFFF;" d="M57.9,17.4v29.1v-0.1V17.4z"/>
	
		<linearGradient id="path61_1_" gradientUnits="userSpaceOnUse" x1="5850.082" y1="1279.3353" x2="5850.082" y2="1250.3353" gradientTransform="matrix(0.1888 0 0 0.1888 -1075.9955 -179.5592)">
		<stop  offset="0" style="stop-color:#FFFFFF"/>
		<stop  offset="0.28" style="stop-color:#FBFBFB"/>
		<stop  offset="0.57" style="stop-color:#EEEEEE"/>
		<stop  offset="0.86" style="stop-color:#DADADA"/>
		<stop  offset="1" style="stop-color:#CDCDCD"/>
	</linearGradient>
	<path id="path61" style="fill:url(#path61_1_);" d="M3.2,56.4c2.8,3.5,13.7,5.5,17.5,5.5h15.7c3.8,0,14.7-2.1,17.4-5.5H3.2z"/>
	<path id="path63" style="fill:#F2F2F2;" d="M57.9,17.4v29.1v-0.1V17.4z"/>
	
		<linearGradient id="rect65_1_" gradientUnits="userSpaceOnUse" x1="5708.7368" y1="1123.7245" x2="5729.5972" y2="1123.7245" gradientTransform="matrix(0.1888 0 0 0.1888 -1077.5457 -181.1092)">
		<stop  offset="0" style="stop-color:#A0A0A0"/>
		<stop  offset="0.5" style="stop-color:#FFFFFF"/>
		<stop  offset="1" style="stop-color:#A0A0A0"/>
	</linearGradient>
	<rect id="rect65" x="0.2" y="10.5" style="fill:url(#rect65_1_);" width="3.9" height="41.1"/>
	<rect id="rect67" x="1.7" y="51.6" style="fill:#333333;" width="0.9" height="0.6"/>
	<rect id="rect69" x="1.7" y="9.9" style="fill:#333333;" width="0.9" height="0.6"/>
	
		<linearGradient id="rect71_1_" gradientUnits="userSpaceOnUse" x1="5744.7368" y1="1123.7245" x2="5765.5972" y2="1123.7245" gradientTransform="matrix(0.1888 0 0 0.1888 -1077.5457 -181.1092)">
		<stop  offset="0" style="stop-color:#A0A0A0"/>
		<stop  offset="0.5" style="stop-color:#FFFFFF"/>
		<stop  offset="1" style="stop-color:#A0A0A0"/>
	</linearGradient>
	<rect id="rect71" x="7" y="10.5" style="fill:url(#rect71_1_);" width="3.9" height="41.1"/>
	<rect id="rect73" x="8.5" y="51.6" style="fill:#333333;" width="0.9" height="0.6"/>
	<rect id="rect75" x="8.5" y="9.9" style="fill:#333333;" width="0.9" height="0.6"/>
	
		<linearGradient id="rect77_1_" gradientUnits="userSpaceOnUse" x1="5780.7368" y1="1123.7245" x2="5801.5972" y2="1123.7245" gradientTransform="matrix(0.1888 0 0 0.1888 -1077.5457 -181.1092)">
		<stop  offset="0" style="stop-color:#A0A0A0"/>
		<stop  offset="0.5" style="stop-color:#FFFFFF"/>
		<stop  offset="1" style="stop-color:#A0A0A0"/>
	</linearGradient>
	<rect id="rect77" x="13.8" y="10.5" style="fill:url(#rect77_1_);" width="3.9" height="41.1"/>
	<rect id="rect79" x="15.3" y="51.6" style="fill:#333333;" width="0.9" height="0.6"/>
	<rect id="rect81" x="15.3" y="9.9" style="fill:#333333;" width="0.9" height="0.6"/>
	
		<linearGradient id="rect83_1_" gradientUnits="userSpaceOnUse" x1="5816.7368" y1="1123.7245" x2="5837.5972" y2="1123.7245" gradientTransform="matrix(0.1888 0 0 0.1888 -1077.5457 -181.1092)">
		<stop  offset="0" style="stop-color:#A0A0A0"/>
		<stop  offset="0.5" style="stop-color:#FFFFFF"/>
		<stop  offset="1" style="stop-color:#A0A0A0"/>
	</linearGradient>
	<rect id="rect83" x="20.6" y="10.5" style="fill:url(#rect83_1_);" width="3.9" height="41.1"/>
	<rect id="rect85" x="22.1" y="51.6" style="fill:#333333;" width="0.9" height="0.6"/>
	<rect id="rect87" x="22.1" y="9.9" style="fill:#333333;" width="0.9" height="0.6"/>
	
		<linearGradient id="rect89_1_" gradientUnits="userSpaceOnUse" x1="5852.7368" y1="1123.7245" x2="5873.5972" y2="1123.7245" gradientTransform="matrix(0.1888 0 0 0.1888 -1077.5457 -181.1092)">
		<stop  offset="0" style="stop-color:#A0A0A0"/>
		<stop  offset="0.5" style="stop-color:#FFFFFF"/>
		<stop  offset="1" style="stop-color:#A0A0A0"/>
	</linearGradient>
	<rect id="rect89" x="27.4" y="10.5" style="fill:url(#rect89_1_);" width="3.9" height="41.1"/>
	<rect id="rect91" x="28.9" y="51.6" style="fill:#333333;" width="0.9" height="0.6"/>
	<rect id="rect93" x="28.9" y="9.9" style="fill:#333333;" width="0.9" height="0.6"/>
	
		<linearGradient id="rect95_1_" gradientUnits="userSpaceOnUse" x1="5888.7368" y1="1123.7245" x2="5909.5972" y2="1123.7245" gradientTransform="matrix(0.1888 0 0 0.1888 -1077.5457 -181.1092)">
		<stop  offset="0" style="stop-color:#A0A0A0"/>
		<stop  offset="0.5" style="stop-color:#FFFFFF"/>
		<stop  offset="1" style="stop-color:#A0A0A0"/>
	</linearGradient>
	<rect id="rect95" x="34.2" y="10.5" style="fill:url(#rect95_1_);" width="3.9" height="41.1"/>
	<rect id="rect97" x="35.7" y="51.6" style="fill:#333333;" width="0.9" height="0.6"/>
	<rect id="rect99" x="35.7" y="9.9" style="fill:#333333;" width="0.9" height="0.6"/>
	
		<linearGradient id="rect101_1_" gradientUnits="userSpaceOnUse" x1="5924.7368" y1="1123.7245" x2="5945.5972" y2="1123.7245" gradientTransform="matrix(0.1888 0 0 0.1888 -1077.5457 -181.1092)">
		<stop  offset="0" style="stop-color:#A0A0A0"/>
		<stop  offset="0.5" style="stop-color:#FFFFFF"/>
		<stop  offset="1" style="stop-color:#A0A0A0"/>
	</linearGradient>
	<rect id="rect101" x="41" y="10.5" style="fill:url(#rect101_1_);" width="3.9" height="41.1"/>
	<rect id="rect103" x="42.5" y="51.6" style="fill:#333333;" width="0.9" height="0.6"/>
	<rect id="rect105" x="42.5" y="9.9" style="fill:#333333;" width="0.9" height="0.6"/>
	
		<linearGradient id="rect107_1_" gradientUnits="userSpaceOnUse" x1="5960.7368" y1="1123.7245" x2="5981.5972" y2="1123.7245" gradientTransform="matrix(0.1888 0 0 0.1888 -1077.5457 -181.1092)">
		<stop  offset="0" style="stop-color:#A0A0A0"/>
		<stop  offset="0.5" style="stop-color:#FFFFFF"/>
		<stop  offset="1" style="stop-color:#A0A0A0"/>
	</linearGradient>
	<rect id="rect107" x="47.8" y="10.5" style="fill:url(#rect107_1_);" width="3.9" height="41.1"/>
	<rect id="rect109" x="49.3" y="51.6" style="fill:#333333;" width="0.9" height="0.6"/>
	<rect id="rect111" x="49.3" y="9.9" style="fill:#333333;" width="0.9" height="0.6"/>
	<path id="path113" style="fill:#BBBCBC;" d="M5.6,7.4C5.8,7.4,6,7.6,6,7.8C6,8,5.8,8.2,5.6,8.2C5.3,8.2,5.2,8,5.2,7.8
		C5.2,7.6,5.2,7.4,5.6,7.4 M5.6,6.8c-0.6,0-1,0.5-1,1s0.4,0.9,1,0.9s0.9-0.4,0.9-0.9l0,0C6.5,7.3,6.1,6.8,5.6,6.8z"/>
	<path id="path115" style="fill:#BBBCBC;" d="M33.7,7.4c0.2,0,0.4,0.2,0.4,0.4c0,0.2-0.2,0.4-0.4,0.4S33.3,8,33.3,7.8l0,0
		C33.2,7.6,33.4,7.4,33.7,7.4 M33.7,6.8c-0.5,0-0.9,0.4-0.9,0.9s0.4,0.9,0.9,0.9s0.9-0.4,0.9-0.9l0,0C34.6,7.3,34.2,6.8,33.7,6.8z"
		/>
	<path id="path117" style="fill:#BBBCBC;" d="M51.4,7.4c0.2,0,0.4,0.2,0.4,0.4c0,0.2-0.2,0.4-0.4,0.4S51,8,51,7.8l0,0
		C50.9,7.6,51.2,7.4,51.4,7.4 M51.4,6.8c-0.5,0-0.9,0.4-0.9,0.9s0.4,0.9,0.9,0.9s0.9-0.4,0.9-0.9C52.4,7.3,52,6.8,51.4,6.8z"/>
	<path id="path119" style="fill:#BBBCBC;" d="M5.6,54.8C5.8,54.8,6,55,6,55.2c0,0.3-0.2,0.5-0.4,0.5c-0.2,0-0.4-0.2-0.4-0.4l0,0
		C5.2,55,5.2,54.8,5.6,54.8 M5.6,54.3c-0.5,0-0.9,0.4-0.9,0.9s0.4,0.9,0.9,0.9s0.9-0.4,0.9-0.9l0,0C6.5,54.7,6.1,54.3,5.6,54.3z"/>
	<path id="path121" style="fill:#BBBCBC;" d="M33.7,54.8c0.2,0,0.4,0.2,0.4,0.4s-0.2,0.4-0.4,0.4s-0.4-0.2-0.4-0.4l0,0
		C33.2,55.1,33.4,54.8,33.7,54.8 M33.7,54.3c-0.5,0-0.9,0.4-0.9,0.9s0.4,0.9,0.9,0.9s0.9-0.4,0.9-0.9l0,0
		C34.6,54.7,34.2,54.3,33.7,54.3z"/>
	<path id="path123" style="fill:#BBBCBC;" d="M23.3,54.8c0.2,0,0.4,0.2,0.4,0.4s-0.2,0.4-0.4,0.4c-0.2,0-0.4-0.2-0.4-0.4l0,0
		C22.9,55.1,23.1,54.8,23.3,54.8 M23.3,54.3c-0.5,0-0.9,0.4-0.9,0.9s0.4,0.9,0.9,0.9s0.9-0.4,0.9-0.9l0,0
		C24.3,54.7,23.8,54.3,23.3,54.3z"/>
	<path id="path125" style="fill:#BBBCBC;" d="M51.4,54.8c0.2,0,0.4,0.2,0.4,0.4s-0.2,0.4-0.4,0.4S51,55.4,51,55.2l0,0
		C50.9,55.1,51.2,54.8,51.4,54.8 M51.4,54.3c-0.5,0-0.9,0.4-0.9,0.9s0.4,0.9,0.9,0.9s0.9-0.4,0.9-0.9l0,0
		C52.4,54.7,52,54.3,51.4,54.3z"/>
	
		<linearGradient id="rect127_1_" gradientUnits="userSpaceOnUse" x1="5775.9302" y1="991.3353" x2="5775.9302" y2="974.3353" gradientTransform="matrix(0.1888 0 0 0.1888 -1077.5457 -181.1092)">
		<stop  offset="0" style="stop-color:#969696"/>
		<stop  offset="0.5" style="stop-color:#CDCDCD"/>
		<stop  offset="1" style="stop-color:#969696"/>
	</linearGradient>
	<rect id="rect127" x="10.6" y="2.8" style="fill:url(#rect127_1_);" width="4.7" height="3.2"/>
	
		<linearGradient id="rect129_1_" gradientUnits="userSpaceOnUse" x1="5792.3496" y1="994.8353" x2="5792.3496" y2="970.8353" gradientTransform="matrix(0.1888 0 0 0.1888 -1077.5457 -181.1092)">
		<stop  offset="0" style="stop-color:#969696"/>
		<stop  offset="0.5" style="stop-color:#CDCDCD"/>
		<stop  offset="1" style="stop-color:#969696"/>
	</linearGradient>
	<rect id="rect129" x="15.3" y="2.1" style="fill:url(#rect129_1_);" width="1.5" height="4.5"/>
	<rect id="rect131" x="17.4" y="0" style="fill:#BBBCBC;" width="3.8" height="1.5"/>
	
		<linearGradient id="path133_1_" gradientUnits="userSpaceOnUse" x1="5824.1284" y1="998.8353" x2="5824.1284" y2="966.8353" gradientTransform="matrix(0.1888 0 0 0.1888 -1075.9955 -179.5592)">
		<stop  offset="0" style="stop-color:#969696"/>
		<stop  offset="0.5" style="stop-color:#CDCDCD"/>
		<stop  offset="1" style="stop-color:#969696"/>
	</linearGradient>
	<path id="path133" style="fill:url(#path133_1_);" d="M18.4,2.9h9.8c0.3,0,0.6,0.3,0.6,0.6l0,0v4.9c0,0.3-0.3,0.6-0.6,0.6l0,0h-9.8
		L18.4,2.9z"/>
	
		<line id="line135" style="fill:none;stroke:#E6E6E6;stroke-width:1.42;stroke-miterlimit:10;" x1="12.2" y1="7.1" x2="16.8" y2="7.1"/>
	
		<line id="line137" style="fill:none;stroke:#E6E6E6;stroke-width:1.42;stroke-miterlimit:10;" x1="12.2" y1="6.6" x2="16.8" y2="6.6"/>
	
		<line id="line139" style="fill:none;stroke:#E6E6E6;stroke-width:1.42;stroke-miterlimit:10;" x1="12.2" y1="5.9" x2="16.8" y2="5.9"/>
	
		<line id="line141" style="fill:none;stroke:#E6E6E6;stroke-width:1.42;stroke-miterlimit:10;" x1="12.2" y1="5.4" x2="16.8" y2="5.4"/>
	
		<line id="line143" style="fill:none;stroke:#E6E6E6;stroke-width:1.42;stroke-miterlimit:10;" x1="12.2" y1="4.9" x2="16.8" y2="4.9"/>
	
		<line id="line145" style="fill:none;stroke:#E6E6E6;stroke-width:1.42;stroke-miterlimit:10;" x1="18.5" y1="6.9" x2="23" y2="6.9"/>
	
		<line id="line147" style="fill:none;stroke:#E6E6E6;stroke-width:1.42;stroke-miterlimit:10;" x1="18.5" y1="6.4" x2="23" y2="6.4"/>
	
		<line id="line149" style="fill:none;stroke:#E6E6E6;stroke-width:1.42;stroke-miterlimit:10;" x1="18.5" y1="5.9" x2="23" y2="5.9"/>
	
		<line id="line151" style="fill:none;stroke:#E6E6E6;stroke-width:1.42;stroke-miterlimit:10;" x1="18.5" y1="5.4" x2="23" y2="5.4"/>
	
		<line id="line153" style="fill:none;stroke:#E6E6E6;stroke-width:1.42;stroke-miterlimit:10;" x1="18.5" y1="4.9" x2="23" y2="4.9"/>
	
		<line id="line155" style="fill:none;stroke:#E6E6E6;stroke-width:1.42;stroke-miterlimit:10;" x1="18.5" y1="4.6" x2="23" y2="4.6"/>
	
		<line id="line157" style="fill:none;stroke:#E6E6E6;stroke-width:1.42;stroke-miterlimit:10;" x1="18.5" y1="4.1" x2="23" y2="4.1"/>
	
		<line id="line159" style="fill:none;stroke:#E6E6E6;stroke-width:1.42;stroke-miterlimit:10;" x1="18.5" y1="3.6" x2="23" y2="3.6"/>
	
		<line id="line161" style="fill:none;stroke:#E6E6E6;stroke-width:1.42;stroke-miterlimit:10;" x1="18.5" y1="3.1" x2="23" y2="3.1"/>
	
		<line id="line163" style="fill:none;stroke:#E6E6E6;stroke-width:1.42;stroke-miterlimit:10;" x1="18.5" y1="8.7" x2="23" y2="8.7"/>
	
		<line id="line165" style="fill:none;stroke:#E6E6E6;stroke-width:1.42;stroke-miterlimit:10;" x1="18.5" y1="8.4" x2="23" y2="8.4"/>
	
		<line id="line167" style="fill:none;stroke:#E6E6E6;stroke-width:1.42;stroke-miterlimit:10;" x1="18.5" y1="7.9" x2="23" y2="7.9"/>
	
		<line id="line169" style="fill:none;stroke:#E6E6E6;stroke-width:1.42;stroke-miterlimit:10;" x1="18.5" y1="7.4" x2="23" y2="7.4"/>
	<path id="rect171" style="fill:#ACADAE;" d="M19,0.7h3.8c0.5,0,0.8,0.4,0.8,0.8l0,0c0,0.5-0.4,0.8-0.8,0.8H19
		c-0.5,0-0.8-0.4-0.8-0.8l0,0C18.2,1.1,18.5,0.7,19,0.7z"/>
</g>
</svg>
