<svg id="small_elements" data-name="small elements" xmlns="http://www.w3.org/2000/svg" viewBox="0 0 17.1 21.26"><g id="sku"><rect width="17.1" height="21.26" rx="0.13" style="fill:#a48974"/><path d="M.13.1a0,0,0,0,0,0,0v21a0,0,0,0,0,0,0H17v.1H.13A.13.13,0,0,1,0,21.13V.13A.13.13,0,0,1,.13,0Z" style="fill:#42210b"/><path d="M17,21.16a0,0,0,0,0,0,0V.13a0,0,0,0,0,0,0H.13V0H17a.13.13,0,0,1,.13.13v21a.13.13,0,0,1-.13.13Z" style="fill:#a67c52"/><rect x="8.5" width="0.1" height="21.26" style="fill:#2d180a"/><rect x="7.44" width="2.21" height="21.26" style="fill:#603813;opacity:0.699999988079071;isolation:isolate"/></g></svg>