<?xml version="1.0" encoding="UTF-8" standalone="no"?>
<svg xmlns:dc="http://purl.org/dc/elements/1.1/" xmlns:cc="http://creativecommons.org/ns#" xmlns:rdf="http://www.w3.org/1999/02/22-rdf-syntax-ns#" xmlns:svg="http://www.w3.org/2000/svg" xmlns="http://www.w3.org/2000/svg" xmlns:sodipodi="http://sodipodi.sourceforge.net/DTD/sodipodi-0.dtd" xmlns:inkscape="http://www.inkscape.org/namespaces/inkscape" inkscape:version="1.0 (4035a4fb49, 2020-05-01)" sodipodi:docname="pallet.svg" version="1.1" viewBox="0 0 20.94 31.4" data-name="small elements" id="small_elements">
  <metadata id="metadata40">
    <rdf:RDF>
      <cc:Work rdf:about="">
        <dc:format>image/svg+xml</dc:format>
        <dc:type rdf:resource="http://purl.org/dc/dcmitype/StillImage" />
      </cc:Work>
    </rdf:RDF>
  </metadata>
  <defs id="defs38" />
  <sodipodi:namedview inkscape:current-layer="pallet" inkscape:window-maximized="1" inkscape:window-y="-8" inkscape:window-x="1912" inkscape:cy="13.024601" inkscape:cx="-6.6217982" inkscape:zoom="13.177209" showgrid="false" id="namedview36" inkscape:window-height="1017" inkscape:window-width="1920" inkscape:pageshadow="2" inkscape:pageopacity="0" guidetolerance="10" gridtolerance="10" objecttolerance="10" borderopacity="1" bordercolor="#666666" pagecolor="#ffffff" />
  <g id="pallet">
    <rect id="rect2" style="fill:#d3b488" rx="0.31" height="3.5" width="20.9" y="13.9" x="0.02" />
    <rect id="rect4" style="fill:#d3b488" rx="0.31" height="3.5" width="20.9" y="-0.01" x="0.02" />
    <rect id="rect6" style="fill:#d3b488" rx="0.19" height="3.5" width="20.9" y="27.95" x="0.02" />
    <path id="path14" style="fill:#f3d49b" d="M17.72,0h3a.22.22,0,0,1,.2.2v31a.22.22,0,0,1-.2.2h-3a.22.22,0,0,1-.2-.2V.2A.22.22,0,0,1,17.72,0Z" />
    <path id="path16" style="fill:#f3d49b" d="M8.92,0h3a.22.22,0,0,1,.2.2v31a.22.22,0,0,1-.2.2h-3a.22.22,0,0,1-.2-.2V.2C8.82.1,8.82,0,8.92,0Z" />
    <path id="path18" style="fill:#f3d49b" d="M.22,0h3a.22.22,0,0,1,.2.2v31a.22.22,0,0,1-.2.2h-3a.22.22,0,0,1-.2-.2V.2A.22.22,0,0,1,.22,0Z" />
    <path id="path20" style="fill:#f3d49b" d="M5,0h2.1a.1.1,0,0,1,.1.1V31.3a.1.1,0,0,1-.1.1H5a.1.1,0,0,1-.1-.1V.2A.35.35,0,0,1,5,0Z" />
    <path id="path22" style="fill:#f3d49b" d="M13.82,0h2.1a.35.35,0,0,1,.1.2V31.3a.1.1,0,0,1-.1.1h-2.1a.1.1,0,0,1-.1-.1V.2C13.72.1,13.72,0,13.82,0Z" />
  </g>
</svg>
