<?xml version="1.0" encoding="UTF-8" standalone="no"?>
<svg width="100%" height="100%" viewBox="0 0 20.94 31.4">
 <g id="pallet">
    <rect id="rect2" style="fill:#d3b488" rx="0.31" height="3.5" width="20.9" y="13.9" x="0.02" />
    <rect id="rect4" style="fill:#d3b488" rx="0.31" height="3.5" width="20.9" y="-0.01" x="0.02" />
    <rect id="rect6" style="fill:#d3b488" rx="0.19" height="3.5" width="20.9" y="27.95" x="0.02" />
    <path id="path14" style="fill:#f3d49b" d="M17.72,0h3a.22.22,0,0,1,.2.2v31a.22.22,0,0,1-.2.2h-3a.22.22,0,0,1-.2-.2V.2A.22.22,0,0,1,17.72,0Z" />
    <path id="path16" style="fill:#f3d49b" d="M8.92,0h3a.22.22,0,0,1,.2.2v31a.22.22,0,0,1-.2.2h-3a.22.22,0,0,1-.2-.2V.2C8.82.1,8.82,0,8.92,0Z" />
    <path id="path18" style="fill:#f3d49b" d="M.22,0h3a.22.22,0,0,1,.2.2v31a.22.22,0,0,1-.2.2h-3a.22.22,0,0,1-.2-.2V.2A.22.22,0,0,1,.22,0Z" />
    <path id="path20" style="fill:#f3d49b" d="M5,0h2.1a.1.1,0,0,1,.1.1V31.3a.1.1,0,0,1-.1.1H5a.1.1,0,0,1-.1-.1V.2A.35.35,0,0,1,5,0Z" />
    <path id="path22" style="fill:#f3d49b" d="M13.82,0h2.1a.35.35,0,0,1,.1.2V31.3a.1.1,0,0,1-.1.1h-2.1a.1.1,0,0,1-.1-.1V.2C13.72.1,13.72,0,13.82,0Z" />
  </g>
</svg>
