<?xml version="1.0" encoding="UTF-8" standalone="no"?>
<svg xmlns:dc="http://purl.org/dc/elements/1.1/" xmlns:cc="http://creativecommons.org/ns#" xmlns:rdf="http://www.w3.org/1999/02/22-rdf-syntax-ns#" xmlns:svg="http://www.w3.org/2000/svg" xmlns="http://www.w3.org/2000/svg" xmlns:xlink="http://www.w3.org/1999/xlink" xmlns:sodipodi="http://sodipodi.sourceforge.net/DTD/sodipodi-0.dtd" xmlns:inkscape="http://www.inkscape.org/namespaces/inkscape" inkscape:version="1.0 (4035a4fb49, 2020-05-01)" sodipodi:docname="ralla.svg" version="1.1" viewBox="0 0 31.07 39.96" data-name="small elements" id="small_elements">
  <metadata id="metadata211">
    <rdf:RDF>
      <cc:Work rdf:about="">
        <dc:format>image/svg+xml</dc:format>
        <dc:type rdf:resource="http://purl.org/dc/dcmitype/StillImage" />
      </cc:Work>
    </rdf:RDF>
  </metadata>
  <sodipodi:namedview inkscape:current-layer="_rotante_" inkscape:window-maximized="1" inkscape:window-y="-8" inkscape:window-x="1912" inkscape:cy="3.645263" inkscape:cx="21.579342" inkscape:zoom="29.286847" showgrid="false" id="namedview209" inkscape:window-height="1017" inkscape:window-width="1920" inkscape:pageshadow="2" inkscape:pageopacity="0" guidetolerance="10" gridtolerance="10" objecttolerance="10" borderopacity="1" bordercolor="#666666" pagecolor="#ffffff" />
  <defs id="defs35">
    <linearGradient gradientUnits="userSpaceOnUse" gradientTransform="translate(-1148.18 1529.12)" y2="-1509.08" x2="1155.41" y1="-1509.08" x1="1151.31" id="Sfumatura_senza_nome_14">
      <stop id="stop2" stop-color="#4b4b4b" offset="0" />
      <stop id="stop4" stop-color="#969696" offset="0.5" />
      <stop id="stop6" stop-color="#4b4b4b" offset="1" />
    </linearGradient>
    <linearGradient xlink:href="#Sfumatura_senza_nome_14" gradientTransform="translate(-1148.7 1528.47)" y2="-1508.49" x2="1154.36" y1="-1508.49" x1="1152.25" id="Sfumatura_senza_nome_14-2" />
    <linearGradient gradientUnits="userSpaceOnUse" gradientTransform="translate(1164.33 -1510.34) rotate(180)" y2="-1522.62" x2="1146.64" y1="-1522.62" x1="1144.56" id="Sfumatura_senza_nome_22">
      <stop id="stop10" stop-color="gray" offset="0" />
      <stop id="stop12" stop-color="#ccc" offset="0.5" />
      <stop id="stop14" stop-color="gray" offset="1" />
    </linearGradient>
    <linearGradient xlink:href="#Sfumatura_senza_nome_22" gradientTransform="matrix(-1,0,0,-1.2056163,1133.32,-1819.5007)" y2="-1522.62" x2="1143.71" y1="-1522.62" x1="1141.63" id="Sfumatura_senza_nome_22-2" />
    <linearGradient xlink:href="#Sfumatura_senza_nome_22" gradientTransform="matrix(-1,0,0,-1.2056163,1133.33,-1819.4887)" y2="-1522.62" x2="1141.01" y1="-1522.62" x1="1138.94" id="Sfumatura_senza_nome_22-3" />
    <linearGradient xlink:href="#Sfumatura_senza_nome_22" gradientTransform="matrix(-1,0,0,-1.2056163,1133.33,-1819.5007)" y2="-1522.62" x2="1138.3" y1="-1522.62" x1="1136.84" id="Sfumatura_senza_nome_22-4" />
    <linearGradient xlink:href="#Sfumatura_senza_nome_22" gradientTransform="matrix(-1,0,0,-1.2056163,1133.32,-1819.5007)" y2="-1522.62" x2="1169.94" y1="-1522.62" x1="1168.3" id="Sfumatura_senza_nome_22-5" />
    <linearGradient xlink:href="#Sfumatura_senza_nome_22" gradientTransform="matrix(-1,0,0,-1.2056163,1133.33,-1819.5007)" y2="-1522.6" x2="1136.36" y1="-1522.6" x1="1135.02" id="Sfumatura_senza_nome_22-6" />
    <linearGradient xlink:href="#Sfumatura_senza_nome_22" gradientTransform="matrix(-1,0,0,-1.2056163,1133.33,-1819.5007)" y2="-1522.6" x2="1171.75" y1="-1522.6" x1="1170.41" id="Sfumatura_senza_nome_22-7" />
    <linearGradient xlink:href="#Sfumatura_senza_nome_22" gradientTransform="matrix(-1,0,0,-1.2056163,1133.32,-1819.5007)" y2="-1522.62" x2="1149.28" y1="-1522.62" x1="1147.21" id="Sfumatura_senza_nome_22-8" />
    <linearGradient xlink:href="#Sfumatura_senza_nome_22" gradientTransform="matrix(-1,0,0,-1.2056163,1133.32,-1819.5007)" y2="-1522.62" x2="1152.04" y1="-1522.62" x1="1149.97" id="Sfumatura_senza_nome_22-9" />
    <linearGradient xlink:href="#Sfumatura_senza_nome_22" gradientTransform="matrix(-1,0,0,-1.2056163,1133.32,-1819.5007)" y2="-1522.62" x2="1156.56" y1="-1522.62" x1="1154.49" id="Sfumatura_senza_nome_22-10" />
    <linearGradient xlink:href="#Sfumatura_senza_nome_22" gradientTransform="matrix(-1,0,0,-1.2056163,1133.32,-1819.5007)" y2="-1522.62" x2="1159.44" y1="-1522.62" x1="1157.36" id="Sfumatura_senza_nome_22-11" />
    <linearGradient xlink:href="#Sfumatura_senza_nome_22" gradientTransform="matrix(-1,0,0,-1.2056163,1133.32,-1819.5007)" y2="-1522.62" x2="1162.2" y1="-1522.62" x1="1160.12" id="Sfumatura_senza_nome_22-12" />
    <linearGradient xlink:href="#Sfumatura_senza_nome_22" gradientTransform="matrix(-1,0,0,-1.2056163,1133.32,-1819.5007)" y2="-1522.62" x2="1164.84" y1="-1522.62" x1="1162.77" id="Sfumatura_senza_nome_22-13" />
    <linearGradient xlink:href="#Sfumatura_senza_nome_22" gradientTransform="matrix(-1,0,0,-1.2056163,1133.32,-1819.5007)" y2="-1522.62" x2="1167.72" y1="-1522.62" x1="1165.64" id="Sfumatura_senza_nome_22-14" />
    <linearGradient xlink:href="#Sfumatura_senza_nome_14" gradientTransform="translate(-653.8 -1415.77) rotate(-90)" y2="656.03" x2="-1435.82" y1="658.02" x1="-1435.82" id="Sfumatura_senza_nome_14-3" />
    <linearGradient xlink:href="#Sfumatura_senza_nome_14" gradientTransform="translate(1437.11 -638.91)" y2="655.62" x2="-1433.89" y1="658.43" x1="-1433.89" id="Sfumatura_senza_nome_14-4" />
    <linearGradient xlink:href="#Sfumatura_senza_nome_14" gradientTransform="translate(1432.84 -638.62)" y2="654.27" x2="-1431.9" y1="655.21" x1="-1431.9" id="Sfumatura_senza_nome_14-5" />
    <linearGradient xlink:href="#Sfumatura_senza_nome_14" gradientTransform="translate(1433.42 -642.6)" y2="655.15" x2="-1430.2" y1="658.9" x1="-1430.2" id="Sfumatura_senza_nome_14-6" />
    <linearGradient xlink:href="#Sfumatura_senza_nome_14" gradientTransform="translate(1432.37 -638.26)" y2="653.8" x2="-1431.84" y1="654.86" x1="-1431.84" id="Sfumatura_senza_nome_14-7" />
  </defs>
  <g data-name="&lt;rotante&gt;" id="_rotante_">
    <path id="path37" style="fill:#333333;stroke-width:1.09801" d="M 2.7641863,4.39 V 35.22 H 0.23239217 a 23.798865,19.74 0 0 0 30.76732683,0 H 29.61326 V 4.39 h 0.8801 a 23.786809,19.73 0 0 0 -29.74255284,0 z" />
    <path id="path41" style="fill:#1a1a1a;stroke-width:1.09801" d="m 29.673541,20 v 15.16 h 1.314122 a 0.06028081,0.05 0 0 1 0.07234,0 c 0,0 0,0 0,0.06 a 23.835034,19.77 0 0 1 -30.85172016,0 v 0 H 2.6195124 V 20 h 0.1446739 v 15.22 a 0.07233698,0.06 0 0 1 -0.072337,0.05 H 0.42529077 a 23.69036,19.65 0 0 0 30.38153023,0 h -1.205617 c 0,0 -0.07234,0 -0.07234,-0.05 V 20 Z" />
    <rect id="rect45" style="fill:#808080;stroke-width:1.09801" transform="rotate(-90)" rx="0.15000001" height="2.6885242" width="29.77" y="0.075662054" x="-34.75" />
    <rect id="rect47" style="fill:#808080;stroke-width:1.09801" transform="rotate(-90)" rx="0.11" height="1.410571" width="29.77" y="29.613262" x="-34.75" />
    <rect id="rect53" style="fill:#949494;fill-opacity:1" transform="rotate(-90)" height="26.13776" width="2.0699999" y="3.1258712" x="-13.32" />
    <rect id="rect55" style="fill:#f2f2f2;stroke-width:1.09801" transform="rotate(90)" height="0.39785337" width="0.5" y="-3.16204" x="12.030001" />
    <rect id="rect57" style="fill:#f2f2f2;stroke-width:1.09801" transform="rotate(90)" height="0.39785337" width="0.5" y="-29.661486" x="12.03" />
    <rect id="rect59" style="fill:#949494;fill-opacity:1" transform="rotate(-90)" height="26.13776" width="2.0699999" y="3.1258712" x="-10.389999" />
    <rect id="rect61" style="fill:#f2f2f2;stroke-width:1.09801" transform="rotate(90)" height="0.39785337" width="0.5" y="-3.1620393" x="9.1000004" />
    <rect id="rect63" style="fill:#f2f2f2;stroke-width:1.09801" transform="rotate(90)" height="0.39785337" width="0.5" y="-29.661486" x="9.0999994" />
    <rect id="rect65" style="fill:#949494;fill-opacity:1" transform="rotate(-90)" height="26.13776" width="2.0699999" y="3.1258712" x="-7.6899996" />
    <rect id="rect67" style="fill:#f2f2f2;stroke-width:1.09801" transform="rotate(90)" height="0.39785337" width="0.5" y="-3.1620398" x="6.4000001" />
    <rect id="rect69" style="fill:#f2f2f2;stroke-width:1.09801" transform="rotate(90)" height="0.39785337" width="0.5" y="-29.661486" x="6.3999996" />
    <rect id="rect71" style="fill:#949494;fill-opacity:1" transform="rotate(-90)" height="22.689697" width="1.46" y="4.8499026" x="-4.98" />
    <rect id="rect73" style="fill:#f2f2f2;stroke-width:1.09801" transform="rotate(90)" height="0.34962872" width="0.34999999" y="-4.8860712" x="4.0699997" />
    <rect id="rect75" style="fill:#f2f2f2;stroke-width:1.09801" transform="rotate(90)" height="0.34962872" width="0.34999999" y="-27.889229" x="4.0700006" />
    <rect id="rect77" style="fill:#949494;fill-opacity:1" transform="rotate(-90)" height="22.689697" width="1.63" y="4.8499017" x="-36.610001" />
    <rect id="rect79" style="fill:#f2f2f2;stroke-width:1.09801" transform="rotate(90)" height="0.34962872" width="0.38999999" y="-4.8860693" x="35.59" />
    <rect id="rect81" style="fill:#f2f2f2;stroke-width:1.09801" transform="rotate(90)" height="0.34962872" width="0.38999999" y="-27.889227" x="35.599998" />
    <rect style="fill:#949494;fill-opacity:1" id="rect83" transform="rotate(-90)" height="14.551788" width="1.34" y="8.8887167" x="-3.039999" />
    <rect id="rect85" style="fill:#f2f2f2;stroke-width:1.09801" transform="rotate(90)" height="0.22906709" width="0.31999999" y="-8.9248857" x="2.1999996" />
    <rect id="rect87" style="fill:#f2f2f2;stroke-width:1.09801" transform="rotate(90)" height="0.22906709" width="0.31999999" y="-23.681629" x="2.2000003" />
    <rect id="rect89" style="fill:#949494;fill-opacity:1" transform="rotate(-90)" height="14.551788" width="1.34" y="8.8887157" x="-38.43" />
    <rect id="rect91" style="fill:#f2f2f2;stroke-width:1.09801" transform="rotate(90)" height="0.22906709" width="0.31999999" y="-8.9248857" x="37.59" />
    <rect id="rect93" style="fill:#f2f2f2;stroke-width:1.09801" transform="rotate(90)" height="0.22906709" width="0.31999999" y="-23.681629" x="37.59" />
    <rect id="rect95" style="fill:#949494;fill-opacity:1" transform="rotate(-90)" height="26.13776" width="2.0699999" y="3.1258712" x="-15.959999" />
    <rect id="rect97" style="fill:#f2f2f2;stroke-width:1.09801" transform="rotate(90)" height="0.39785337" width="0.5" y="-3.1620398" x="14.67" />
    <rect id="rect99" style="fill:#f2f2f2;stroke-width:1.09801" transform="rotate(90)" height="0.39785337" width="0.5" y="-29.661486" x="14.67" />
    <rect id="rect101" style="fill:#949494;fill-opacity:1" transform="rotate(-90)" height="26.13776" width="2.0699999" y="3.1258714" x="-18.719999" />
    <rect id="rect103" style="fill:#f2f2f2;stroke-width:1.09801" transform="rotate(90)" height="0.39785337" width="0.5" y="-3.1620395" x="17.43" />
    <rect id="rect105" style="fill:#f2f2f2;stroke-width:1.09801" transform="rotate(90)" height="0.39785337" width="0.5" y="-29.661486" x="17.43" />
    <rect id="rect107" style="fill:#949494;fill-opacity:1" transform="rotate(-90)" height="26.13776" width="2.0699999" y="3.1258707" x="-23.24" />
    <rect id="rect109" style="fill:#f2f2f2;stroke-width:1.09801" transform="rotate(90)" height="0.39785337" width="0.5" y="-3.1620388" x="21.950001" />
    <rect id="rect111" style="fill:#f2f2f2;stroke-width:1.09801" transform="rotate(90)" height="0.39785337" width="0.5" y="-29.661484" x="21.949999" />
    <rect id="rect113" style="fill:#949494;fill-opacity:1" transform="rotate(-90)" height="26.13776" width="2.0699999" y="3.1258709" x="-26.119999" />
    <rect id="rect115" style="fill:#f2f2f2;stroke-width:1.09801" transform="rotate(90)" height="0.39785337" width="0.5" y="-3.1740963" x="24.82" />
    <rect id="rect117" style="fill:#f2f2f2;stroke-width:1.09801" transform="rotate(90)" height="0.39785337" width="0.5" y="-29.673542" x="24.82" />
    <rect id="rect119" style="fill:#949494;fill-opacity:1" transform="rotate(-90)" height="26.13776" width="2.0699999" y="3.1258712" x="-28.879999" />
    <rect id="rect121" style="fill:#f2f2f2;stroke-width:1.09801" transform="rotate(90)" height="0.39785337" width="0.5" y="-3.1740961" x="27.58" />
    <rect id="rect123" style="fill:#f2f2f2;stroke-width:1.09801" transform="rotate(90)" height="0.39785337" width="0.5" y="-29.673542" x="27.58" />
    <rect id="rect125" style="fill:#949494;fill-opacity:1" transform="rotate(-90)" height="26.13776" width="2.0699999" y="3.1258705" x="-31.519999" />
    <rect id="rect127" style="fill:#f2f2f2;stroke-width:1.09801" transform="rotate(90)" height="0.39785337" width="0.5" y="-3.1620402" x="30.23" />
    <rect id="rect129" style="fill:#f2f2f2;stroke-width:1.09801" transform="rotate(90)" height="0.39785337" width="0.5" y="-29.661486" x="30.23" />
    <rect id="rect131" style="fill:#949494;fill-opacity:1" transform="rotate(-90)" height="26.13776" width="2.0699999" y="3.1258717" x="-34.399998" />
    <rect id="rect133" style="fill:#f2f2f2;stroke-width:1.09801" transform="rotate(90)" height="0.39785337" width="0.5" y="-3.1740954" x="33.110001" />
    <rect id="rect135" style="fill:#f2f2f2;stroke-width:1.09801" transform="rotate(90)" height="0.39785337" width="0.5" y="-29.67354" x="33.099998" />
    <line id="line199" style="fill:none;stroke:#999999;stroke-width:0.128676px;stroke-miterlimit:10" y2="4.98" x2="2.6315687" y1="4.98" x1="0.20827959" />
    <line id="line203" style="fill:none;stroke:#999999;stroke-width:0.128676px;stroke-miterlimit:10" y2="34.75" x2="0.20827959" y1="34.75" x1="2.6315687" />
    <path id="path205" style="fill:none;stroke:#e6e6e6;stroke-width:0.128676px;stroke-miterlimit:10" d="M 2.6315685,5 A 0.13261779,0.11 0 0 1 2.7641863,5.11 V 34.64 A 0.13261779,0.11 0 0 1 2.6315685,34.75" />
  </g>
</svg>
