<?xml version="1.0" encoding="UTF-8" standalone="no"?>
<svg xmlns:dc="http://purl.org/dc/elements/1.1/" xmlns:cc="http://creativecommons.org/ns#" xmlns:rdf="http://www.w3.org/1999/02/22-rdf-syntax-ns#" xmlns:svg="http://www.w3.org/2000/svg" xmlns="http://www.w3.org/2000/svg" xmlns:sodipodi="http://sodipodi.sourceforge.net/DTD/sodipodi-0.dtd" xmlns:inkscape="http://www.inkscape.org/namespaces/inkscape" inkscape:version="1.0 (4035a4fb49, 2020-05-01)" sodipodi:docname="rushmover.svg" version="1.1" viewBox="0 0 34.67 36.26" data-name="small elements" id="small_elements">
  <metadata id="metadata161">
    <rdf:RDF>
      <cc:Work rdf:about="">
        <dc:format>image/svg+xml</dc:format>
        <dc:type rdf:resource="http://purl.org/dc/dcmitype/StillImage" />
      </cc:Work>
    </rdf:RDF>
  </metadata>
  <sodipodi:namedview inkscape:current-layer="rushmover" inkscape:window-maximized="1" inkscape:window-y="-8" inkscape:window-x="1912" inkscape:cy="9.5872591" inkscape:cx="7.8979648" inkscape:zoom="11.411042" showgrid="false" id="namedview159" inkscape:window-height="1017" inkscape:window-width="1920" inkscape:pageshadow="2" inkscape:pageopacity="0" guidetolerance="10" gridtolerance="10" objecttolerance="10" borderopacity="1" bordercolor="#666666" pagecolor="#ffffff" />
  <defs id="defs27" />
  <g id="rushmover">
    <path id="path29" style="fill:#b3b3b3" d="M2,33c1.59,2,8.05,3.25,10.29,3.25h9.28c2.23,0,8.69-1.22,10.28-3.25Z" />
    <path id="path33" style="fill:#b3b3b3" d="M31.87,4.7c-1.59-2-8-3.25-10.28-3.25H12.31C10.07,1.45,3.61,2.67,2,4.7Z" />
    <path id="path35" style="fill:none;stroke:gray;stroke-linejoin:round;stroke-width:0.111807472183325px" d="M31.87,4.7c-1.59-2-8-3.25-10.28-3.25H12.31C10.07,1.45,3.61,2.67,2,4.7Z" />
    <rect id="rect37" style="fill:#333" rx="0.9" height="23.01" width="33.65" y="7.39" x="0.12" />
    <path id="path39" style="fill:gray" d="M34.1,4.7H.22a.14.14,0,0,0-.15.15V6.33a.14.14,0,0,0,.15.15H33.1V31.22a.32.32,0,0,0-.14,0H.61a.49.49,0,0,0-.49.49v.82A.48.48,0,0,0,.61,33H33l.14,0v0h1a.35.35,0,0,0,.35-.34V5A.35.35,0,0,0,34.1,4.7Z" />
    <path id="path43" style="fill:none;stroke:#4d4d4d;stroke-linejoin:round;stroke-width:0.111807472183325px" d="M.12,31.68v.82A.48.48,0,0,0,.61,33H34.1a.35.35,0,0,0,.35-.34" />
    <path id="path45" style="fill:none;stroke:#ccc;stroke-linejoin:round;stroke-width:0.111807472183325px" d="M33.1,31.19H.61a.49.49,0,0,0-.49.49" />
    <line id="line47" style="fill:none;stroke:#666;stroke-linejoin:round;stroke-width:0.111807472183325px" y2="31.22" x2="33.1" y1="6.48" x1="33.1" />
    <line id="line49" style="fill:none;stroke:#4d4d4d;stroke-linejoin:round;stroke-width:0.111807472183325px" y2="6.48" x2="33.1" y1="6.48" x1="0.22" />
    <path id="path51" style="fill:none;stroke:#ccc;stroke-linejoin:round;stroke-width:0.111807472183325px" d="M34.45,5a.35.35,0,0,0-.35-.34H.22a.14.14,0,0,0-.15.15V6.33a.14.14,0,0,0,.15.15" />
    <path id="path53" style="fill:#f2f2f2" d="M34.44,9.82V27.08a.43.43,0,0,1,0,0V9.87S34.44,9.84,34.44,9.82Z" />
    <rect id="rect57" style="fill:#333" height="0.37" width="0.56" y="31.04" x="2.02" />
    <rect id="rect59" style="fill:#333" height="0.37" width="0.56" y="6.33" x="2.02" />
    <rect id="rect63" style="fill:#333" height="0.37" width="0.56" y="31.04" x="6.05" />
    <rect id="rect65" style="fill:#333" height="0.37" width="0.56" y="6.33" x="6.05" />
    <rect id="rect69" style="fill:#333" height="0.37" width="0.56" y="31.04" x="10.07" />
    <rect id="rect71" style="fill:#333" height="0.37" width="0.56" y="6.33" x="10.07" />
    <rect id="rect75" style="fill:#333" height="0.37" width="0.56" y="31.04" x="14.1" />
    <rect id="rect77" style="fill:#333" height="0.37" width="0.56" y="6.33" x="14.1" />
    <rect id="rect81" style="fill:#333" height="0.37" width="0.56" y="31.04" x="18.12" />
    <rect id="rect83" style="fill:#333" height="0.37" width="0.56" y="6.33" x="18.12" />
    <rect id="rect87" style="fill:#333" height="0.37" width="0.56" y="31.04" x="22.15" />
    <rect id="rect89" style="fill:#333" height="0.37" width="0.56" y="6.33" x="22.15" />
    <rect id="rect93" style="fill:#333" height="0.37" width="0.56" y="31.04" x="26.17" />
    <rect id="rect95" style="fill:#333" height="0.37" width="0.56" y="6.33" x="26.17" />
    <rect style="fill:#9c9c9c;fill-opacity:1" id="rect97" transform="translate(60.97 37.79) rotate(180)" height="24.37" width="2.33" y="6.71" x="29.32" />
    <rect id="rect99" style="fill:#333" height="0.37" width="0.56" y="31.04" x="30.2" />
    <rect id="rect101" style="fill:#333" height="0.37" width="0.56" y="6.33" x="30.2" />
    <path id="path103" style="fill:#f2f2f2" d="M3.36,32.07a.24.24,0,0,1,.24.24.23.23,0,0,1-.24.24.24.24,0,0,1-.24-.24.24.24,0,0,1,.24-.24m0-.32a.56.56,0,1,0,.56.56.56.56,0,0,0-.56-.56Z" />
    <path id="path105" style="fill:#f2f2f2" d="M30.53,32.07a.24.24,0,0,1,.24.24.23.23,0,0,1-.24.24.24.24,0,0,1-.24-.24.24.24,0,0,1,.24-.24m0-.32a.56.56,0,1,0,.56.56.56.56,0,0,0-.56-.56Z" />
    <path id="path107" style="fill:#f2f2f2" d="M3.36,5.35a.24.24,0,0,1,0,.48.24.24,0,0,1,0-.48m0-.32a.56.56,0,1,0,.56.56A.56.56,0,0,0,3.36,5Z" />
    <path id="path109" style="fill:#f2f2f2" d="M30.53,5.35a.24.24,0,0,1,0,.48.24.24,0,0,1,0-.48m0-.32a.56.56,0,1,0,.56.56A.56.56,0,0,0,30.53,5Z" />
    <rect x="-27.629999" y="-31.08" width="2.3299999" height="24.370001" transform="scale(-1)" id="rect97-8" style="fill:#9c9c9c;fill-opacity:1" />
    <rect style="fill:#9c9c9c;fill-opacity:1" id="rect97-8-2" transform="scale(-1)" height="24.370001" width="2.3299999" y="-31.08" x="-23.6" />
    <rect style="fill:#9c9c9c;fill-opacity:1" id="rect97-8-8" transform="scale(-1)" height="24.370001" width="2.3299999" y="-31.08" x="-19.58" />
    <rect style="fill:#9c9c9c;fill-opacity:1" id="rect97-8-9" transform="scale(-1)" height="24.370001" width="2.3299999" y="-31.08" x="-15.55" />
    <rect style="fill:#9c9c9c;fill-opacity:1" id="rect97-8-98" transform="scale(-1)" height="24.370001" width="2.3299999" y="-31.08" x="-11.530001" />
    <rect style="fill:#9c9c9c;fill-opacity:1" id="rect97-8-95" transform="scale(-1)" height="24.370001" width="2.3299999" y="-31.08" x="-7.5" />
    <rect style="fill:#9c9c9c;fill-opacity:1" id="rect97-8-6" transform="scale(-1)" height="24.370001" width="2.3299999" y="-31.08" x="-3.48" />
  </g>
</svg>
