<?xml version="1.0" encoding="UTF-8" standalone="no"?>
<svg xmlns:dc="http://purl.org/dc/elements/1.1/" xmlns:cc="http://creativecommons.org/ns#" xmlns:rdf="http://www.w3.org/1999/02/22-rdf-syntax-ns#" xmlns:svg="http://www.w3.org/2000/svg" xmlns="http://www.w3.org/2000/svg" xmlns:sodipodi="http://sodipodi.sourceforge.net/DTD/sodipodi-0.dtd" xmlns:inkscape="http://www.inkscape.org/namespaces/inkscape" height="28.43" width="21.300121" inkscape:version="1.0 (4035a4fb49, 2020-05-01)" sodipodi:docname="supercap.svg" version="1.1" viewBox="0 0 21.300121 28.43" data-name="small elements" id="small_elements">
  <metadata id="metadata1155">
    <rdf:RDF>
      <cc:Work rdf:about="">
        <dc:format>image/svg+xml</dc:format>
        <dc:type rdf:resource="http://purl.org/dc/dcmitype/StillImage" />
      </cc:Work>
    </rdf:RDF>
  </metadata>
  <sodipodi:namedview inkscape:current-layer="_supercap_" inkscape:window-maximized="1" inkscape:window-y="-8" inkscape:window-x="1912" inkscape:cy="13.420738" inkscape:cx="11.74215" inkscape:zoom="20.416999" showgrid="false" id="namedview1153" inkscape:window-height="1017" inkscape:window-width="1920" inkscape:pageshadow="2" inkscape:pageopacity="0" guidetolerance="10" gridtolerance="10" objecttolerance="10" borderopacity="1" bordercolor="#666666" pagecolor="#ffffff" />
  <defs id="defs23" />
  <g transform="translate(-0.14987946,-0.11999992)" data-name="&lt;supercap&gt;" id="_supercap_">
    <rect id="rect25" style="fill:#e6e6e6;stroke-width:1.34014" transform="rotate(90)" height="21.300121" width="28.43" y="-21.450001" x="0.11999992" />
    <path id="path569" d="m 15.39,10 c 0,0 0,-0.34 0,-0.57 0,-0.23 0,-0.12 0,-0.12 0,0 -0.05,0 -0.08,0.17 -0.1,0.45 -0.16,0.58 -0.53,0.58 -0.37,0 -0.55,-0.22 -0.55,-0.62 a 2.91,2.91 0 0 1 0.09,-0.67 h 0.42 a 5.53,5.53 0 0 0 -0.05,0.6 c 0,0.09 0,0.12 0.05,0.12 0.05,0 0,0 0.07,-0.18 0.06,-0.45 0.19,-0.57 0.52,-0.57 0.33,0 0.55,0.23 0.55,0.62 a 4.91,4.91 0 0 1 -0.06,0.63 z" />
    <path id="path571" d="m 14.8,10.71 c -0.09,0 -0.12,0 -0.12,0.15 0,0.15 0,0.14 0.12,0.14 h 1 v 0.55 h -1 c -0.47,0 -0.61,-0.23 -0.61,-0.69 0,-0.46 0.13,-0.7 0.6,-0.7 h 1 v 0.55 z" />
    <path id="path573" d="m 14.59,12.24 h -0.33 v -0.55 h 1.58 v 0.62 c 0,0.47 -0.11,0.72 -0.61,0.72 -0.5,0 -0.64,-0.25 -0.64,-0.72 z m 0.44,0 c 0,0.13 0.05,0.19 0.19,0.19 0.14,0 0.19,-0.06 0.19,-0.19 v 0 H 15 Z" />
    <path id="path575" d="m 15.84,13.14 v 1.18 h -0.43 v -0.63 h -0.14 v 0.49 H 14.84 V 13.69 H 14.7 v 0.63 h -0.44 v -1.18 z" />
    <path id="path577" d="M 14.67,15.12 V 15 h -0.41 v -0.55 h 1.58 v 0.66 c 0,0.47 -0.11,0.69 -0.58,0.69 A 0.53,0.53 0 0 1 14.8,15.62 l -0.54,0.16 v -0.56 l 0.41,-0.09 z m 0.74,0 V 15 H 15.1 v 0.14 c 0,0.08 0.06,0.11 0.16,0.11 0.1,0 0.15,-0.06 0.15,-0.15 z" />
    <path id="path579" d="m 14.28,17 a 2.94,2.94 0 0 1 0,-0.45 c 0,-0.49 0.3,-0.6 0.84,-0.6 0.54,0 0.85,0.1 0.85,0.6 A 2.68,2.68 0 0 1 15.92,17 h -0.16 a 2.82,2.82 0 0 0 0,-0.43 c 0,-0.36 -0.22,-0.42 -0.69,-0.42 -0.47,0 -0.67,0.05 -0.67,0.43 a 2.72,2.72 0 0 0 0,0.42 z" />
    <path id="path581" d="M 15.9,17.62 V 18 l -1.64,0.45 v -0.18 l 0.42,-0.12 v -0.7 l -0.42,-0.12 v -0.18 z m -1.06,-0.11 v 0.62 l 0.9,-0.25 v -0.12 z" />
    <path id="path583" d="m 14.81,18.91 h -0.55 v -0.18 h 1.64 v 0.6 a 0.46,0.46 0 0 1 -0.53,0.52 c -0.36,0 -0.56,-0.17 -0.56,-0.52 z m 0.16,0.41 c 0,0.24 0.14,0.34 0.4,0.34 0.26,0 0.36,-0.1 0.36,-0.34 V 18.91 H 15 Z" />
    <path id="path585" d="m 6.36,18.65 c 0,0 0,0.34 0,0.57 0,0.23 0,0.12 0,0.12 0,0 0,0 0.08,-0.17 0.1,-0.45 0.16,-0.58 0.53,-0.58 0.37,0 0.54,0.22 0.54,0.62 A 3.24,3.24 0 0 1 7.43,19.88 H 7.01 a 5.53,5.53 0 0 0 0.05,-0.6 c 0,-0.09 0,-0.12 -0.05,-0.12 -0.05,0 0,0 -0.07,0.18 -0.06,0.45 -0.19,0.57 -0.52,0.57 -0.33,0 -0.56,-0.23 -0.56,-0.62 a 4.24,4.24 0 0 1 0.07,-0.63 z" />
    <path id="path587" d="m 6.94,18 c 0.09,0 0.13,0 0.13,-0.15 0,-0.15 0,-0.14 -0.13,-0.14 h -1 v -0.55 h 1 c 0.47,0 0.61,0.23 0.61,0.69 0,0.46 -0.14,0.7 -0.6,0.7 h -1 V 18 Z" />
    <path id="path589" d="M 7.15,16.42 H 7.49 V 17 H 5.91 v -0.62 c 0,-0.47 0.11,-0.72 0.61,-0.72 0.5,0 0.63,0.25 0.63,0.72 z M 6.72,16.37 c 0,-0.13 0,-0.19 -0.19,-0.19 -0.19,0 -0.19,0.06 -0.19,0.19 v 0.05 h 0.38 z" />
    <path id="path591" d="M 5.91,15.52 V 14.34 H 6.34 V 15 H 6.48 V 14.51 H 6.91 V 15 h 0.14 v -0.63 h 0.44 v 1.18 z" />
    <path id="path593" d="m 7.08,13.54 v 0.13 h 0.41 v 0.55 H 5.91 v -0.66 c 0,-0.47 0.1,-0.69 0.58,-0.69 a 0.53,0.53 0 0 1 0.46,0.18 l 0.54,-0.16 v 0.56 z m -0.74,0 v 0.12 h 0.31 v -0.14 c 0,-0.08 -0.06,-0.11 -0.16,-0.11 -0.1,0 -0.15,0.06 -0.15,0.15 z" />
    <path id="path595" d="m 7.47,11.64 a 3,3 0 0 1 0,0.45 c 0,0.49 -0.29,0.6 -0.83,0.6 -0.54,0 -0.85,-0.1 -0.85,-0.6 a 2.68,2.68 0 0 1 0,-0.45 H 6 a 2.82,2.82 0 0 0 0,0.43 c 0,0.36 0.22,0.42 0.69,0.42 0.47,0 0.67,-0.05 0.67,-0.43 a 2.72,2.72 0 0 0 0,-0.42 z" />
    <path id="path597" d="m 5.85,11 v -0.4 l 1.64,-0.45 v 0.18 l -0.42,0.12 v 0.7 l 0.42,0.12 v 0.18 z m 1.06,0.11 v -0.62 l -0.9,0.25 v 0.12 z" />
    <path id="path599" d="M 6.94,9.75 H 7.49 V 9.93 H 5.85 V 9.33 A 0.46,0.46 0 0 1 6.38,8.81 c 0.36,0 0.56,0.17 0.56,0.52 z M 6.78,9.34 C 6.78,9.1 6.63,9 6.38,9 6.13,9 6,9.1 6,9.34 v 0.41 h 0.77 z" />
    <rect style="fill:#8698a4;fill-opacity:1;stroke-width:1.58762" y="0.11999992" x="17.958088" height="28.43" width="3.5666142" id="rect1980" />
    <rect id="rect1980-4" width="3.5666142" height="28.43" x="0.14987946" y="0.11999992" style="fill:#8698a4;fill-opacity:1;stroke-width:1.58762" />
  </g>
</svg>
