<?xml version="1.0" encoding="UTF-8" standalone="no"?>
<svg xmlns:dc="http://purl.org/dc/elements/1.1/" xmlns:cc="http://creativecommons.org/ns#" xmlns:rdf="http://www.w3.org/1999/02/22-rdf-syntax-ns#" xmlns:svg="http://www.w3.org/2000/svg" xmlns="http://www.w3.org/2000/svg" xmlns:sodipodi="http://sodipodi.sourceforge.net/DTD/sodipodi-0.dtd" xmlns:inkscape="http://www.inkscape.org/namespaces/inkscape" inkscape:version="1.0 (4035a4fb49, 2020-05-01)" sodipodi:docname="trasloForche.svg" version="1.1" viewBox="0 0 30.78 108.99" data-name="small elements" id="small_elements">
  <metadata id="metadata99">
    <rdf:RDF>
      <cc:Work rdf:about="">
        <dc:format>image/svg+xml</dc:format>
        <dc:type rdf:resource="http://purl.org/dc/dcmitype/StillImage" />
      </cc:Work>
    </rdf:RDF>
  </metadata>
  <defs id="defs97" />
  <sodipodi:namedview inkscape:current-layer="small_elements" inkscape:window-maximized="1" inkscape:window-y="-8" inkscape:window-x="1912" inkscape:cy="-13.277097" inkscape:cx="-65.276626" inkscape:zoom="1.8981759" showgrid="false" id="namedview95" inkscape:window-height="1017" inkscape:window-width="1920" inkscape:pageshadow="2" inkscape:pageopacity="0" guidetolerance="10" gridtolerance="10" objecttolerance="10" borderopacity="1" bordercolor="#666666" pagecolor="#ffffff" />
  <g id="g970">
    <rect x="6.58" y="41.49" width="13.16" height="20.02" rx="0.65" transform="translate(64.67 38.34) rotate(90)" style="fill:#ccc" id="rect2" />
    <rect x="6.19" y="71.94" width="3.12" height="4.68" style="fill:gray" id="rect4" />
    <polygon points="5.5 78.01 5.5 76.63 10.01 76.63 10.01 78.01 5.5 78.01" style="fill:#b3b3b3" id="polygon6" />
    <polygon points="6.97 71.94 6.97 66.75 8.53 66.75 8.53 71.94 6.97 71.94" style="fill:#b3b3b3" id="polygon8" />
    <polygon points="10.53 82.35 10.53 78.53 12.09 78.53 12.09 82.35 10.53 82.35" style="fill:gray" id="polygon10" />
    <path d="M4.8,87.73V78h5.9v9.72a.46.46,0,0,1-.52.52H5.32A.46.46,0,0,1,4.8,87.73Z" style="fill:#b3b3b3" id="path12" />
    <line x1="6.54" y1="71.94" x2="6.54" y2="76.63" style="fill:none;stroke:#e6e6e6;stroke-miterlimit:10;stroke-width:0.26388036349479865px" id="line14" />
    <line x1="7.06" y1="71.94" x2="7.06" y2="76.63" style="fill:none;stroke:#e6e6e6;stroke-miterlimit:10;stroke-width:0.26388036349479865px" id="line16" />
    <line x1="7.75" y1="71.94" x2="7.75" y2="76.63" style="fill:none;stroke:#e6e6e6;stroke-miterlimit:10;stroke-width:0.26388036349479865px" id="line18" />
    <line x1="8.27" y1="71.94" x2="8.27" y2="76.63" style="fill:none;stroke:#e6e6e6;stroke-miterlimit:10;stroke-width:0.26388036349479865px" id="line20" />
    <line x1="8.79" y1="71.94" x2="8.79" y2="76.63" style="fill:none;stroke:#e6e6e6;stroke-miterlimit:10;stroke-width:0.26388036349479865px" id="line22" />
    <line x1="6.71" y1="78.19" x2="6.71" y2="82.7" style="fill:none;stroke:#e6e6e6;stroke-miterlimit:10;stroke-width:0.26388036349479865px" id="line24" />
    <line x1="7.23" y1="78.19" x2="7.23" y2="82.7" style="fill:none;stroke:#e6e6e6;stroke-miterlimit:10;stroke-width:0.26388036349479865px" id="line26" />
    <line x1="7.75" y1="78.19" x2="7.75" y2="82.7" style="fill:none;stroke:#e6e6e6;stroke-miterlimit:10;stroke-width:0.26388036349479865px" id="line28" />
    <line x1="8.1" y1="78.19" x2="8.1" y2="82.7" style="fill:none;stroke:#e6e6e6;stroke-miterlimit:10;stroke-width:0.26388036349479865px" id="line30" />
    <line x1="8.62" y1="78.19" x2="8.62" y2="82.7" style="fill:none;stroke:#e6e6e6;stroke-miterlimit:10;stroke-width:0.26388036349479865px" id="line32" />
    <line x1="9.14" y1="78.19" x2="9.14" y2="82.7" style="fill:none;stroke:#e6e6e6;stroke-miterlimit:10;stroke-width:0.26388036349479865px" id="line34" />
    <line x1="9.49" y1="78.19" x2="9.49" y2="82.7" style="fill:none;stroke:#e6e6e6;stroke-miterlimit:10;stroke-width:0.26388036349479865px" id="line36" />
    <line x1="10.01" y1="78.19" x2="10.01" y2="82.7" style="fill:none;stroke:#e6e6e6;stroke-miterlimit:10;stroke-width:0.26388036349479865px" id="line38" />
    <line x1="10.53" y1="78.19" x2="10.53" y2="82.7" style="fill:none;stroke:#e6e6e6;stroke-miterlimit:10;stroke-width:0.26388036349479865px" id="line40" />
    <line x1="4.98" y1="78.19" x2="4.98" y2="82.7" style="fill:none;stroke:#e6e6e6;stroke-miterlimit:10;stroke-width:0.26388036349479865px" id="line42" />
    <line x1="5.32" y1="78.19" x2="5.32" y2="82.7" style="fill:none;stroke:#e6e6e6;stroke-miterlimit:10;stroke-width:0.26388036349479865px" id="line44" />
    <line x1="5.84" y1="78.19" x2="5.84" y2="82.7" style="fill:none;stroke:#e6e6e6;stroke-miterlimit:10;stroke-width:0.26388036349479865px" id="line46" />
    <line x1="6.36" y1="78.19" x2="6.36" y2="82.7" style="fill:none;stroke:#e6e6e6;stroke-miterlimit:10;stroke-width:0.26388036349479865px" id="line48" />
    <path d="M11.22,82.35V78.71a.82.82,0,0,1,.87-.87h0a.82.82,0,0,1,.87.87v3.64a.82.82,0,0,1-.87.87h0A.82.82,0,0,1,11.22,82.35Z" style="fill:#b3b3b3" id="path50" />
    <rect x="-28.44" y="53.56" width="102.4" height="8.26" rx="2.21" transform="translate(80.45 34.93) rotate(90)" style="fill:#f2f2f2" id="rect52" />
    <path d="M24.68,109.39H20.84a2.71,2.71,0,0,1-2.71-2.71v-98A2.7,2.7,0,0,1,20.84,6h3.84a2.71,2.71,0,0,1,2.71,2.7v98A2.71,2.71,0,0,1,24.68,109.39ZM20.84,7a1.7,1.7,0,0,0-1.71,1.7v98a1.71,1.71,0,0,0,1.71,1.71h3.84a1.72,1.72,0,0,0,1.71-1.71v-98A1.71,1.71,0,0,0,24.68,7Z" style="fill:#ccc" id="path54" />
    <rect x="2.37" y="61.72" width="27.51" height="5.66" rx="0.95" transform="translate(32.25 129.09) rotate(180)" style="fill:gray" id="rect56" />
    <rect x="2.37" y="74.83" width="27.51" height="5.66" rx="0.95" transform="translate(32.25 155.31) rotate(180)" style="fill:gray" id="rect58" />
    <rect x="2.37" y="88.25" width="27.51" height="5.66" rx="0.95" transform="translate(32.25 182.16) rotate(180)" style="fill:gray" id="rect60" />
    <rect x="2.57" y="-2.23" width="25.98" height="30.44" rx="1.41" transform="translate(28.56 -2.57) rotate(90)" style="fill:#ccc" id="rect62" />
    <rect x="3.99" y="-0.57" width="23.15" height="27.13" rx="1.01" transform="translate(28.56 -2.57) rotate(90)" style="fill:#f2f2f2" id="rect64" />
    <rect y="40.86" width="13.16" height="20.02" rx="0.65" style="fill:#f2f2f2" id="rect66" />
    <path d="M12.51,61.38H.65A1.16,1.16,0,0,1-.5,60.23V41.52A1.16,1.16,0,0,1,.65,40.36H12.51a1.15,1.15,0,0,1,1.15,1.16V60.23A1.15,1.15,0,0,1,12.51,61.38ZM.65,41.36a.16.16,0,0,0-.15.16V60.23a.15.15,0,0,0,.15.15H12.51a.15.15,0,0,0,.15-.15V41.52a.16.16,0,0,0-.15-.16Z" style="fill:#ccc" id="path68" />
    <polygon points="16.84 47.16 16.84 28.43 18.89 25.14 22.79 25.14 25.52 28.43 25.52 47.16 22.79 48.81 18.99 48.81 16.84 47.16" style="fill:gray" id="polygon70" />
    <rect x="14.02" y="25.67" width="13.99" height="2.18" rx="0.42" transform="translate(47.78 5.74) rotate(90)" style="fill:#b3b3b3" id="rect72" />
    <rect x="14.02" y="45.59" width="13.99" height="2.18" rx="0.42" transform="translate(67.7 25.66) rotate(90)" style="fill:#b3b3b3" id="rect74" />
    <rect x="3.78" y="36.4" width="34.48" height="0.62" rx="0.31" transform="translate(57.73 15.69) rotate(90)" style="fill:#1a1a1a" id="rect76" />
    <path d="M5.24,14H3.9l1.21-3.24H6.52L7.76,14H6.42l-.12-.41h-1Zm.84-1.18-.15-.57c0-.13-.06-.28-.08-.41h0l-.23,1Z" style="fill:#010a10" id="path78" />
    <path d="M10.88,10.72v1.91c0,.95-.64,1.38-1.62,1.38s-1.61-.43-1.61-1.38V10.72H8.91v1.8c0,.26,0,.48.35.48s.35-.22.35-.48v-1.8Z" style="fill:#010a10" id="path80" />
    <polygon points="11.19 10.7 13.86 10.7 13.86 11.75 13.16 11.72 13.16 13.94 11.89 13.94 11.89 11.72 11.19 11.75 11.19 10.7" style="fill:#010a10" id="polygon82" />
    <polygon points="20.85 10.86 20.32 10.86 19.32 13.3 18.41 10.86 17.85 10.86 17.85 10.91 17.6 14.02 18.03 14.02 18.25 11.52 19.21 14.02 19.43 14.02 20.44 11.53 20.59 14.02 21.01 14.02 20.85 10.86" style="fill:#010a10" id="polygon84" />
    <polygon points="23.41 10.86 23.41 12.2 21.7 12.2 21.7 10.86 21.27 10.86 21.27 14.02 21.7 14.02 21.7 12.57 23.41 12.57 23.41 14.02 23.84 14.02 23.84 10.86 23.41 10.86" style="fill:#010a10" id="polygon86" />
    <path d="M25.79,10.86H25.4v0L23.92,14h.45l.37-.81H26.4l.35.81h.48Zm-.88,2,.67-1.46.65,1.46Z" style="fill:#010a10" id="path88" />
    <path d="M15.73,10.7a1.74,1.74,0,1,0,1.73,1.74A1.74,1.74,0,0,0,15.73,10.7Z" style="fill:#010a10" id="path90" />
    <path d="M15.73,13.25a.82.82,0,1,1,.81-.81A.81.81,0,0,1,15.73,13.25Z" style="fill:#ffdc00" id="path92" />
  </g>
</svg>
