<?xml version="1.0" encoding="utf-8"?>
<!-- Generator: Adobe Illustrator 24.2.3, SVG Export Plug-In . SVG Version: 6.00 Build 0)  -->
<svg version="1.1" id="small_elements" xmlns="http://www.w3.org/2000/svg" xmlns:xlink="http://www.w3.org/1999/xlink" x="0px"
	 y="0px" viewBox="0 0 17.1 21.3" style="enable-background:new 0 0 17.1 21.3;" xml:space="preserve">
<path style="fill:#A48974;" d="M0.1,0H17c0.1,0,0.1,0.1,0.1,0.1v21c0,0.1-0.1,0.1-0.1,0.1H0.1c-0.1,0-0.1-0.1-0.1-0.1v-21
	C0,0.1,0.1,0,0.1,0z"/>
<path style="fill:#42210B;" d="M0.1,0.1L0.1,0.1v21l0,0H17v0.1H0.1c-0.1,0-0.1,0-0.1-0.1v-21C0,0.1,0.1,0,0.1,0V0.1z"/>
<path style="fill:#A67C52;" d="M17,21.2L17,21.2v-21l0,0H0.1V0H17c0.1,0,0.1,0.1,0.1,0.1v21C17.1,21.2,17.1,21.3,17,21.2L17,21.2z"
	/>
<rect x="8.5" style="fill:#2D180A;" width="0.1" height="21.3"/>
<rect x="7.4" style="opacity:0.7;fill:#603813;enable-background:new    ;" width="2.2" height="21.3"/>
</svg>
