<?xml version="1.0" encoding="UTF-8" standalone="no"?>
<svg xmlns:dc="http://purl.org/dc/elements/1.1/" xmlns:cc="http://creativecommons.org/ns#" xmlns:rdf="http://www.w3.org/1999/02/22-rdf-syntax-ns#" xmlns:svg="http://www.w3.org/2000/svg" xmlns="http://www.w3.org/2000/svg" xmlns:xlink="http://www.w3.org/1999/xlink" xmlns:sodipodi="http://sodipodi.sourceforge.net/DTD/sodipodi-0.dtd" xmlns:inkscape="http://www.inkscape.org/namespaces/inkscape" inkscape:version="1.0 (4035a4fb49, 2020-05-01)" sodipodi:docname="rullieraS.svg" version="1.1" viewBox="0 0 25.8 29.8" data-name="small elements" id="small_elements">
  <metadata id="metadata104">
    <rdf:RDF>
      <cc:Work rdf:about="">
        <dc:format>image/svg+xml</dc:format>
        <dc:type rdf:resource="http://purl.org/dc/dcmitype/StillImage" />
      </cc:Work>
    </rdf:RDF>
  </metadata>
  <sodipodi:namedview inkscape:current-layer="rullieraS" inkscape:window-maximized="1" inkscape:window-y="-8" inkscape:window-x="1912" inkscape:cy="19.2213" inkscape:cx="12.9" inkscape:zoom="27.769421" showgrid="false" id="namedview102" inkscape:window-height="1017" inkscape:window-width="1920" inkscape:pageshadow="2" inkscape:pageopacity="0" guidetolerance="10" gridtolerance="10" objecttolerance="10" borderopacity="1" bordercolor="#666666" pagecolor="#ffffff" />
  <defs id="defs18">
    <linearGradient gradientUnits="userSpaceOnUse" gradientTransform="translate(-5739.25 -938.84) rotate(90)" y2="-5752.1" x2="947.55" y1="-5752.1" x1="945.5" id="Sfumatura_senza_nome_2">
      <stop id="stop2" stop-color="gray" offset="0" />
      <stop id="stop4" stop-color="#ccc" offset="0.5" />
      <stop id="stop6" stop-color="gray" offset="1" />
    </linearGradient>
    <linearGradient xlink:href="#Sfumatura_senza_nome_2" gradientTransform="translate(-5739.26 -938.84) rotate(90)" y2="-5752.11" x2="944.62" y1="-5752.11" x1="942.58" id="Sfumatura_senza_nome_2-2" />
    <linearGradient xlink:href="#Sfumatura_senza_nome_2" gradientTransform="translate(-5739.26 -938.83) rotate(90)" y2="-5752.11" x2="941.7" y1="-5752.11" x1="939.65" id="Sfumatura_senza_nome_2-3" />
    <linearGradient xlink:href="#Sfumatura_senza_nome_2" gradientTransform="translate(-5739.26 -938.83) rotate(90)" y2="-5752.11" x2="950.47" y1="-5752.11" x1="948.43" id="Sfumatura_senza_nome_2-4" />
    <linearGradient xlink:href="#Sfumatura_senza_nome_2" gradientTransform="translate(-5739.26 -938.84) rotate(90)" y2="-5752.11" x2="953.4" y1="-5752.11" x1="951.35" id="Sfumatura_senza_nome_2-5" />
    <linearGradient xlink:href="#Sfumatura_senza_nome_2" y2="-5752.1" x2="956.33" y1="-5752.1" x1="954.28" id="Sfumatura_senza_nome_2-6" />
    <linearGradient xlink:href="#Sfumatura_senza_nome_2" gradientTransform="translate(-5739.26 -938.84) rotate(90)" y2="-5752.11" x2="959.25" y1="-5752.11" x1="957.21" id="Sfumatura_senza_nome_2-7" />
    <linearGradient xlink:href="#Sfumatura_senza_nome_2" y2="-5752.1" x2="962.18" y1="-5752.1" x1="960.13" id="Sfumatura_senza_nome_2-8" />
    <linearGradient xlink:href="#Sfumatura_senza_nome_2" gradientTransform="translate(-5739.26 -938.83) rotate(90)" y2="-5752.11" x2="965.1" y1="-5752.11" x1="963.06" id="Sfumatura_senza_nome_2-9" />
    <linearGradient xlink:href="#Sfumatura_senza_nome_2" gradientTransform="translate(-5739.26 -938.84) rotate(90)" y2="-5752.11" x2="968.03" y1="-5752.11" x1="965.98" id="Sfumatura_senza_nome_2-10" />
  </defs>
  <g id="rullieraS">
    <path id="path20" style="fill:#333" d="M22.7,1.4V28.7c0,.2-.2.5-.4.5H3.5a.46.46,0,0,1-.4-.5V1.4A.43.43,0,0,1,3.5,1H22.2A.46.46,0,0,1,22.7,1.4Z" />
    <path id="path22" style="fill:gray" d="M.2,29.4V.3A.1.1,0,0,1,.3.2H2.2a.1.1,0,0,1,.1.1V29.4a.1.1,0,0,1-.1.1H.4C.3,29.5.2,29.5.2,29.4Z" />
    <line id="line24" style="fill:none;stroke:#999;stroke-miterlimit:10;stroke-width:0.119999997317791px" y2="0.2" x2="2.3" y1="0.2" x1="0.3" />
    <path id="path26" style="fill:none;stroke:#4d4d4d;stroke-miterlimit:10;stroke-width:0.119999997317791px" d="M.3,29.6c-.1,0-.1,0-.1-.1h0V.3C.2.2.2.2.3.2" />
    <line id="line28" style="fill:none;stroke:#999;stroke-miterlimit:10;stroke-width:0.119999997317791px" y2="29.6" x2="0.3" y1="29.6" x1="2.3" />
    <path id="path30" style="fill:none;stroke:#e6e6e6;stroke-miterlimit:10;stroke-width:0.119999997317791px" d="M2.3.2c.1,0,.1,0,.1.1V29.4c0,.1,0,.1-.1.1h0" />
    <rect id="rect32" style="fill:#949494;fill-opacity:1" height="2.1" width="20.3" y="6.7" x="2.7" />
    <rect id="rect34" style="fill:#333" height="0.5" width="0.3" y="7.4" x="2.4" />
    <rect id="rect36" style="fill:#333" height="0.5" width="0.3" y="7.4" x="23" />
    <rect id="rect38" style="fill:#949494;fill-opacity:1" height="2.1" width="20.3" y="3.7" x="2.7" />
    <rect id="rect40" style="fill:#333" height="0.5" width="0.3" y="4.5" x="2.4" />
    <rect id="rect42" style="fill:#333" height="0.5" width="0.3" y="4.5" x="23" />
    <rect id="rect44" style="fill:#949494;fill-opacity:1" height="2.0999999" width="20.299999" y="0.80000001" x="2.7" />
    <rect id="rect46" style="fill:#333" height="0.5" width="0.3" y="1.6" x="2.4" />
    <rect id="rect48" style="fill:#333" height="0.5" width="0.3" y="1.6" x="23" />
    <rect id="rect50" style="fill:#949494;fill-opacity:1" height="2.1" width="20.3" y="9.6" x="2.7" />
    <rect id="rect52" style="fill:#333" height="0.5" width="0.3" y="10.4" x="2.4" />
    <rect id="rect54" style="fill:#333" height="0.5" width="0.3" y="10.4" x="23" />
    <rect id="rect56" style="fill:#949494;fill-opacity:1" height="2.1" width="20.3" y="12.5" x="2.7" />
    <rect id="rect58" style="fill:#333" height="0.5" width="0.4" y="13.3" x="2.4" />
    <rect id="rect60" style="fill:#333" height="0.5" width="0.3" y="13.3" x="23" />
    <rect id="rect62" style="fill:#949494;fill-opacity:1" height="2.1" width="20.3" y="15.4" x="2.7" />
    <rect id="rect64" style="fill:#333" height="0.5" width="0.3" y="16.2" x="2.4" />
    <rect id="rect66" style="fill:#333" height="0.5" width="0.3" y="16.2" x="23" />
    <rect id="rect68" style="fill:#949494;fill-opacity:1" height="2.1" width="20.3" y="18.4" x="2.7" />
    <rect id="rect70" style="fill:#333" height="0.5" width="0.3" y="19.1" x="2.4" />
    <rect id="rect72" style="fill:#333" height="0.5" width="0.3" y="19.1" x="23" />
    <rect id="rect74" style="fill:#949494;fill-opacity:1" height="2.1" width="20.3" y="21.3" x="2.7" />
    <rect id="rect76" style="fill:#333" height="0.5" width="0.3" y="22.1" x="2.4" />
    <rect id="rect78" style="fill:#333" height="0.5" width="0.3" y="22.1" x="23" />
    <rect id="rect80" style="fill:#949494;fill-opacity:1" height="2.1" width="20.3" y="24.2" x="2.7" />
    <rect id="rect82" style="fill:#333" height="0.5" width="0.3" y="25" x="2.4" />
    <rect id="rect84" style="fill:#333" height="0.5" width="0.3" y="25" x="23" />
    <rect id="rect86" style="fill:#949494;fill-opacity:1" height="2.1" width="20.3" y="27.1" x="2.7" />
    <rect id="rect88" style="fill:#333" height="0.5" width="0.3" y="27.9" x="2.4" />
    <rect id="rect90" style="fill:#333" height="0.5" width="0.3" y="27.9" x="23" />
    <path id="path92" style="fill:gray" d="M23.3,29.4V.3a.1.1,0,0,1,.1-.1h1.9a.1.1,0,0,1,.1.1V29.4a.1.1,0,0,1-.1.1H23.4A.1.1,0,0,1,23.3,29.4Z" />
    <line id="line94" style="fill:none;stroke:#999;stroke-miterlimit:10;stroke-width:0.119999997317791px" y2="0.2" x2="25.4" y1="0.2" x1="23.4" />
    <path id="path96" style="fill:none;stroke:#4d4d4d;stroke-miterlimit:10;stroke-width:0.119999997317791px" d="M23.4,29.6c-.1,0-.1,0-.1-.1h0V.3c0-.1,0-.1.1-.1" />
    <line id="line98" style="fill:none;stroke:#999;stroke-miterlimit:10;stroke-width:0.119999997317791px" y2="29.6" x2="23.4" y1="29.6" x1="25.4" />
  </g>
</svg>
