<?xml version="1.0" encoding="UTF-8" standalone="no"?>
<svg xmlns:dc="http://purl.org/dc/elements/1.1/" xmlns:cc="http://creativecommons.org/ns#" xmlns:rdf="http://www.w3.org/1999/02/22-rdf-syntax-ns#" xmlns:svg="http://www.w3.org/2000/svg" xmlns="http://www.w3.org/2000/svg" xmlns:sodipodi="http://sodipodi.sourceforge.net/DTD/sodipodi-0.dtd" xmlns:inkscape="http://www.inkscape.org/namespaces/inkscape" inkscape:version="1.0 (4035a4fb49, 2020-05-01)" sodipodi:docname="rullieraL.svg" version="1.1" viewBox="0 0 25.8 64.9" data-name="small elements" id="small_elements">
  <metadata id="metadata190">
    <rdf:RDF>
      <cc:Work rdf:about="">
        <dc:format>image/svg+xml</dc:format>
        <dc:type rdf:resource="http://purl.org/dc/dcmitype/StillImage" />
      </cc:Work>
    </rdf:RDF>
  </metadata>
  <sodipodi:namedview inkscape:current-layer="rullieraL" inkscape:window-maximized="1" inkscape:window-y="-8" inkscape:window-x="1912" inkscape:cy="38.724103" inkscape:cx="3.0967144" inkscape:zoom="12.750828" showgrid="false" id="namedview188" inkscape:window-height="1017" inkscape:window-width="1920" inkscape:pageshadow="2" inkscape:pageopacity="0" guidetolerance="10" gridtolerance="10" objecttolerance="10" borderopacity="1" bordercolor="#666666" pagecolor="#ffffff" />
  <defs id="defs30" />
  <g id="rullieraL">
    <path id="path32" style="fill:#333" d="M22.9,2V62.8c0,.6-.2,1-.5,1H3.4c-.2,0-.5-.4-.5-1V2c0-.6.2-1,.5-1H22.5C22.7,1,22.9,1.4,22.9,2Z" />
    <path id="path34" style="fill:gray" d="M.1,64.1V.5A.44.44,0,0,1,.2.2H2.1c.1,0,.1.1.1.3V64.1a.44.44,0,0,1-.1.3H.3C.2,64.5.1,64.3.1,64.1Z" />
    <line id="line36" style="fill:none;stroke:#999;stroke-miterlimit:10;stroke-width:0.119999997317791px" y2="0.2" x2="2.2" y1="0.2" x1="0.2" />
    <path id="path38" style="fill:none;stroke:#4d4d4d;stroke-miterlimit:10;stroke-width:0.177499994635582px" d="M.2,64.5c-.1,0-.1-.1-.1-.2h0V.4C.1.3.1.2.2.2" />
    <line id="line40" style="fill:none;stroke:#999;stroke-miterlimit:10;stroke-width:0.177499994635582px" y2="64.5" x2="0.2" y1="64.5" x1="2.2" />
    <path id="path42" style="fill:none;stroke:#e6e6e6;stroke-miterlimit:10;stroke-width:0.177499994635582px" d="M2.2.2c.1,0,.1.1.1.2V64.2c0,.1,0,.2-.1.2h0" />
    <rect id="rect44" style="fill:#949494;fill-opacity:1" height="2.1" width="20.6" y="6.7" x="2.6" />
    <rect id="rect46" style="fill:#333" height="0.5" width="0.3" y="7.4" x="2.3" />
    <rect id="rect48" style="fill:#333" height="0.5" width="0.3" y="7.4" x="23.2" />
    <rect id="rect50" style="fill:#949494;fill-opacity:1" height="2.1" width="20.6" y="3.7" x="2.6" />
    <rect id="rect52" style="fill:#333" height="0.5" width="0.3" y="4.5" x="2.3" />
    <rect id="rect54" style="fill:#333" height="0.5" width="0.3" y="4.5" x="23.2" />
    <rect id="rect56" style="fill:#949494;fill-opacity:1" height="2.0999999" width="20.6" y="0.80000001" x="2.5999999" />
    <rect id="rect58" style="fill:#333" height="0.5" width="0.3" y="1.6" x="2.3" />
    <rect id="rect60" style="fill:#333" height="0.5" width="0.3" y="1.6" x="23.2" />
    <rect id="rect62" style="fill:#949494;fill-opacity:1" height="2.1" width="20.6" y="9.6" x="2.6" />
    <rect id="rect64" style="fill:#333" height="0.5" width="0.3" y="10.4" x="2.3" />
    <rect id="rect66" style="fill:#333" height="0.5" width="0.3" y="10.4" x="23.2" />
    <rect id="rect68" style="fill:#949494;fill-opacity:1" height="2.1" width="20.6" y="12.5" x="2.6" />
    <rect id="rect70" style="fill:#333" height="0.5" width="0.3" y="13.3" x="2.3" />
    <rect id="rect72" style="fill:#333" height="0.5" width="0.3" y="13.3" x="23.2" />
    <rect id="rect74" style="fill:#949494;fill-opacity:1" height="2" width="20.6" y="15.4" x="2.6" />
    <rect id="rect76" style="fill:#333" height="0.5" width="0.3" y="16.2" x="2.3" />
    <rect id="rect78" style="fill:#333" height="0.5" width="0.3" y="16.2" x="23.2" />
    <rect id="rect80" style="fill:#949494;fill-opacity:1" height="2" width="20.6" y="18.4" x="2.6" />
    <rect id="rect82" style="fill:#333" height="0.5" width="0.3" y="19.1" x="2.3" />
    <rect id="rect84" style="fill:#333" height="0.5" width="0.3" y="19.1" x="23.2" />
    <rect id="rect86" style="fill:#949494;fill-opacity:1" height="2" width="20.6" y="21.3" x="2.6" />
    <rect id="rect88" style="fill:#333" height="0.5" width="0.3" y="22.1" x="2.3" />
    <rect id="rect90" style="fill:#333" height="0.5" width="0.3" y="22.1" x="23.2" />
    <rect id="rect92" style="fill:#949494;fill-opacity:1" height="2" width="20.6" y="24.2" x="2.6" />
    <rect id="rect94" style="fill:#333" height="0.5" width="0.3" y="25" x="2.3" />
    <rect id="rect96" style="fill:#333" height="0.5" width="0.3" y="25" x="23.2" />
    <rect id="rect98" style="fill:#949494;fill-opacity:1" height="2" width="20.6" y="27.1" x="2.6" />
    <rect id="rect100" style="fill:#333" height="0.5" width="0.3" y="27.9" x="2.3" />
    <rect id="rect102" style="fill:#333" height="0.5" width="0.3" y="27.9" x="23.2" />
    <rect id="rect104" style="fill:#949494;fill-opacity:1" height="2" width="20.6" y="30.1" x="2.6" />
    <rect id="rect106" style="fill:#333" height="0.5" width="0.3" y="30.9" x="2.3" />
    <rect id="rect108" style="fill:#333" height="0.5" width="0.3" y="30.8" x="23.2" />
    <rect id="rect110" style="fill:#949494;fill-opacity:1" height="2" width="20.6" y="33" x="2.6" />
    <rect id="rect112" style="fill:#333" height="0.5" width="0.3" y="33.8" x="2.3" />
    <rect id="rect114" style="fill:#333" height="0.5" width="0.3" y="33.8" x="23.2" />
    <rect id="rect116" style="fill:#949494;fill-opacity:1" height="2" width="20.6" y="35.9" x="2.6" />
    <rect id="rect118" style="fill:#333" height="0.5" width="0.3" y="36.7" x="2.3" />
    <rect id="rect120" style="fill:#333" height="0.5" width="0.3" y="36.7" x="23.2" />
    <rect id="rect122" style="fill:#949494;fill-opacity:1" height="2" width="20.6" y="38.9" x="2.6" />
    <rect id="rect124" style="fill:#333" height="0.5" width="0.3" y="39.6" x="2.3" />
    <rect id="rect126" style="fill:#333" height="0.5" width="0.3" y="39.6" x="23.2" />
    <rect id="rect128" style="fill:#949494;fill-opacity:1" height="2" width="20.6" y="41.8" x="2.6" />
    <rect id="rect130" style="fill:#333" height="0.5" width="0.3" y="42.6" x="2.3" />
    <rect id="rect132" style="fill:#333" height="0.5" width="0.3" y="42.5" x="23.2" />
    <rect id="rect134" style="fill:#949494;fill-opacity:1" height="2" width="20.6" y="44.6" x="2.6" />
    <rect id="rect136" style="fill:#333" height="0.5" width="0.3" y="45.4" x="2.3" />
    <rect id="rect138" style="fill:#333" height="0.5" width="0.3" y="45.4" x="23.2" />
    <rect id="rect140" style="fill:#949494;fill-opacity:1" height="2" width="20.6" y="47.5" x="2.6" />
    <rect id="rect142" style="fill:#333" height="0.5" width="0.3" y="48.3" x="2.3" />
    <rect id="rect144" style="fill:#333" height="0.5" width="0.3" y="48.3" x="23.2" />
    <rect id="rect146" style="fill:#949494;fill-opacity:1" height="2" width="20.6" y="50.5" x="2.6" />
    <rect id="rect148" style="fill:#333" height="0.5" width="0.3" y="51.3" x="2.3" />
    <rect id="rect150" style="fill:#333" height="0.5" width="0.3" y="51.3" x="23.2" />
    <rect id="rect152" style="fill:#949494;fill-opacity:1" height="2" width="20.6" y="53.4" x="2.6" />
    <rect id="rect154" style="fill:#333" height="0.5" width="0.3" y="54.2" x="2.3" />
    <rect id="rect156" style="fill:#333" height="0.5" width="0.3" y="54.2" x="23.2" />
    <rect id="rect158" style="fill:#949494;fill-opacity:1" height="2" width="20.6" y="56.3" x="2.6" />
    <rect id="rect160" style="fill:#333" height="0.5" width="0.3" y="57.1" x="2.3" />
    <rect id="rect162" style="fill:#333" height="0.5" width="0.3" y="57.1" x="23.2" />
    <rect id="rect164" style="fill:#949494;fill-opacity:1" height="2" width="20.6" y="59.3" x="2.6" />
    <rect id="rect166" style="fill:#333" height="0.5" width="0.3" y="60" x="2.3" />
    <rect id="rect168" style="fill:#333" height="0.5" width="0.3" y="60" x="23.2" />
    <rect id="rect170" style="fill:#949494;fill-opacity:1" height="2" width="20.6" y="62.2" x="2.6" />
    <rect id="rect172" style="fill:#333" height="0.5" width="0.3" y="63" x="2.3" />
    <rect id="rect174" style="fill:#333" height="0.5" width="0.3" y="63" x="23.2" />
    <path id="path176" style="fill:gray" d="M23.5,64.1V.5a.44.44,0,0,1,.1-.3h1.9c.1,0,.1.1.1.3V64.1a.44.44,0,0,1-.1.3H23.7C23.6,64.5,23.5,64.3,23.5,64.1Z" />
    <line id="line178" style="fill:none;stroke:#999;stroke-miterlimit:10;stroke-width:0.119999997317791px" y2="0.2" x2="25.6" y1="0.2" x1="23.6" />
    <line id="line182" style="fill:none;stroke:#999;stroke-miterlimit:10;stroke-width:0.177499994635582px" y2="64.5" x2="23.6" y1="64.5" x1="25.6" />
    <path id="path184" style="fill:none;stroke:#e6e6e6;stroke-miterlimit:10;stroke-width:0.177499994635582px" d="M25.6.2c.1,0,.1.1.1.2V64.2c0,.1,0,.2-.1.2h0" />
  </g>
</svg>
