<?xml version="1.0" encoding="UTF-8" standalone="no"?>
<svg xmlns:dc="http://purl.org/dc/elements/1.1/" xmlns:cc="http://creativecommons.org/ns#" xmlns:rdf="http://www.w3.org/1999/02/22-rdf-syntax-ns#" xmlns:svg="http://www.w3.org/2000/svg" xmlns="http://www.w3.org/2000/svg" xmlns:sodipodi="http://sodipodi.sourceforge.net/DTD/sodipodi-0.dtd" xmlns:inkscape="http://www.inkscape.org/namespaces/inkscape" version="1.1" id="small_elements" x="0px" y="0px" viewBox="0 0 25.8 29.8" style="enable-background:new 0 0 25.8 29.8;" xml:space="preserve" sodipodi:docname="rulliera.svg" inkscape:version="1.0 (4035a4fb49, 2020-05-01)"><metadata id="metadata159"><rdf:RDF><cc:Work rdf:about=""><dc:format>image/svg+xml</dc:format><dc:type rdf:resource="http://purl.org/dc/dcmitype/StillImage" /></cc:Work></rdf:RDF></metadata><defs id="defs157" /><sodipodi:namedview inkscape:document-rotation="0" pagecolor="#ffffff" bordercolor="#666666" borderopacity="1" objecttolerance="10" gridtolerance="10" guidetolerance="10" inkscape:pageopacity="0" inkscape:pageshadow="2" inkscape:window-width="1920" inkscape:window-height="1017" id="namedview155" showgrid="false" inkscape:zoom="27.035287" inkscape:cx="12.9" inkscape:cy="11.940904" inkscape:window-x="1912" inkscape:window-y="-8" inkscape:window-maximized="1" inkscape:current-layer="_rulliera_" />
<g id="small_elements-2">
	<g id="_rulliera_">
		<path style="fill:#333333;" d="M22.7,1.4v27.3c0,0.2-0.2,0.5-0.4,0.5H3.5c-0.2,0-0.4-0.3-0.4-0.5V1.4C3.1,1.2,3.3,1,3.5,1h18.7    C22.4,1,22.7,1.2,22.7,1.4z" id="path2" />
		<path style="fill:#808080;" d="M0.2,29.4V0.3c0-0.1,0-0.1,0.1-0.1l0,0h1.9c0.1,0,0.1,0,0.1,0.1v29.1c0,0.1,0,0.1-0.1,0.1h0H0.4    C0.3,29.5,0.2,29.5,0.2,29.4z" id="path4" />
		<line style="fill:none;stroke:#999999;stroke-width:0.12;stroke-miterlimit:10;" x1="0.3" y1="0.2" x2="2.3" y2="0.2" id="line6" />
		<path style="fill:none;stroke:#4D4D4D;stroke-width:0.12;stroke-miterlimit:10;" d="M0.3,29.6c-0.1,0-0.1,0-0.1-0.1l0,0V0.3    c0-0.1,0-0.1,0.1-0.1" id="path8" />
		<line style="fill:none;stroke:#999999;stroke-width:0.12;stroke-miterlimit:10;" x1="2.3" y1="29.6" x2="0.3" y2="29.6" id="line10" />
		<path style="fill:none;stroke:#E6E6E6;stroke-width:0.12;stroke-miterlimit:10;" d="M2.3,0.2c0.1,0,0.1,0,0.1,0.1v29.1    c0,0.1,0,0.1-0.1,0.1l0,0" id="path12" />
		
			
		<rect x="2.7" y="6.7" style="fill:#949494;fill-opacity:1" width="20.3" height="2.1" id="rect21" />
		<rect x="2.4" y="7.4" style="fill:#333333;" width="0.3" height="0.5" id="rect23" />
		<rect x="23" y="7.4" style="fill:#333333;" width="0.3" height="0.5" id="rect25" />
		
			
		<rect x="2.7" y="3.7" style="fill:#949494;fill-opacity:1" width="20.3" height="2.1" id="rect34" />
		<rect x="2.4" y="4.5" style="fill:#333333;" width="0.3" height="0.5" id="rect36" />
		<rect x="23" y="4.5" style="fill:#333333;" width="0.3" height="0.5" id="rect38" />
		
			
		<rect x="2.7" y="0.80000001" style="fill:#949494;fill-opacity:1" width="20.299999" height="2.0999999" id="rect47" />
		<rect x="2.4" y="1.6" style="fill:#333333;" width="0.3" height="0.5" id="rect49" />
		<rect x="23" y="1.6" style="fill:#333333;" width="0.3" height="0.5" id="rect51" />
		
			
		<rect x="2.7" y="9.6" style="fill:#949494;fill-opacity:1" width="20.3" height="2.1" id="rect60" />
		<rect x="2.4" y="10.4" style="fill:#333333;" width="0.3" height="0.5" id="rect62" />
		<rect x="23" y="10.4" style="fill:#333333;" width="0.3" height="0.5" id="rect64" />
		
			
		<rect x="2.7" y="12.5" style="fill:#949494;fill-opacity:1" width="20.3" height="2.1" id="rect73" />
		<rect x="2.4" y="13.3" style="fill:#333333;" width="0.4" height="0.5" id="rect75" />
		<rect x="23" y="13.3" style="fill:#333333;" width="0.3" height="0.5" id="rect77" />
		
			
		<rect x="2.7" y="15.4" style="fill:#949494;fill-opacity:1" width="20.3" height="2.1" id="rect86" />
		<rect x="2.4" y="16.2" style="fill:#333333;" width="0.3" height="0.5" id="rect88" />
		<rect x="23" y="16.2" style="fill:#333333;" width="0.3" height="0.5" id="rect90" />
		
			
		<rect x="2.7" y="18.4" style="fill:#949494;fill-opacity:1" width="20.3" height="2.1" id="rect99" />
		<rect x="2.4" y="19.1" style="fill:#333333;" width="0.3" height="0.5" id="rect101" />
		<rect x="23" y="19.1" style="fill:#333333;" width="0.3" height="0.5" id="rect103" />
		
			
		<rect x="2.7" y="21.3" style="fill:#949494;fill-opacity:1" width="20.3" height="2.1" id="rect112" />
		<rect x="2.4" y="22.1" style="fill:#333333;" width="0.3" height="0.5" id="rect114" />
		<rect x="23" y="22.1" style="fill:#333333;" width="0.3" height="0.5" id="rect116" />
		
			
		<rect x="2.7" y="24.2" style="fill:#949494;fill-opacity:1" width="20.3" height="2.1" id="rect125" />
		<rect x="2.4" y="25" style="fill:#333333;" width="0.3" height="0.5" id="rect127" />
		<rect x="23" y="25" style="fill:#333333;" width="0.3" height="0.5" id="rect129" />
		
			
		<rect x="2.7" y="27.1" style="fill:#949494;fill-opacity:1" width="20.3" height="2.1" id="rect138" />
		<rect x="2.4" y="27.9" style="fill:#333333;" width="0.3" height="0.5" id="rect140" />
		<rect x="23" y="27.9" style="fill:#333333;" width="0.3" height="0.5" id="rect142" />
		<path style="fill:#808080;" d="M23.3,29.4V0.3c0-0.1,0-0.1,0.1-0.1l0,0h1.9c0.1,0,0.1,0,0.1,0.1c0,0,0,0,0,0v29.1    c0,0.1,0,0.1-0.1,0.1l0,0h-1.9C23.3,29.5,23.3,29.5,23.3,29.4L23.3,29.4z" id="path144" />
		<line style="fill:none;stroke:#999999;stroke-width:0.12;stroke-miterlimit:10;" x1="23.4" y1="0.2" x2="25.4" y2="0.2" id="line146" />
		<path style="fill:none;stroke:#4D4D4D;stroke-width:0.12;stroke-miterlimit:10;" d="M23.4,29.6c-0.1,0-0.1,0-0.1-0.1l0,0V0.3    c0-0.1,0-0.1,0.1-0.1" id="path148" />
		<line style="fill:none;stroke:#999999;stroke-width:0.12;stroke-miterlimit:10;" x1="25.4" y1="29.6" x2="23.4" y2="29.6" id="line150" />
	</g>
</g>
</svg>
