<?xml version="1.0" encoding="UTF-8" standalone="no"?>
<svg xmlns:dc="http://purl.org/dc/elements/1.1/" xmlns:cc="http://creativecommons.org/ns#" xmlns:rdf="http://www.w3.org/1999/02/22-rdf-syntax-ns#" xmlns:svg="http://www.w3.org/2000/svg" xmlns="http://www.w3.org/2000/svg" xmlns:sodipodi="http://sodipodi.sourceforge.net/DTD/sodipodi-0.dtd" xmlns:inkscape="http://www.inkscape.org/namespaces/inkscape" inkscape:version="1.0 (4035a4fb49, 2020-05-01)" sodipodi:docname="rullieraM.svg" version="1.1" viewBox="0 0 25.8 44.3" data-name="small elements" id="small_elements">
  <metadata id="metadata141">
    <rdf:RDF>
      <cc:Work rdf:about="">
        <dc:format>image/svg+xml</dc:format>
        <dc:type rdf:resource="http://purl.org/dc/dcmitype/StillImage" />
      </cc:Work>
    </rdf:RDF>
  </metadata>
  <sodipodi:namedview inkscape:current-layer="_rullieraM_" inkscape:window-maximized="1" inkscape:window-y="-8" inkscape:window-x="1912" inkscape:cy="11.443423" inkscape:cx="12.9" inkscape:zoom="18.680107" showgrid="false" id="namedview139" inkscape:window-height="1017" inkscape:window-width="1920" inkscape:pageshadow="2" inkscape:pageopacity="0" guidetolerance="10" gridtolerance="10" objecttolerance="10" borderopacity="1" bordercolor="#666666" pagecolor="#ffffff" />
  <defs id="defs23" />
  <g data-name=" rullieraM " id="_rullieraM_">
    <path id="path25" style="fill:#333" d="M23,1.7V42.8c0,.4-.2.7-.5.7H3.5a.68.68,0,0,1-.5-.7V1.7c.1-.4.3-.7.6-.7H22.7C22.8,1,23,1.3,23,1.7Z" />
    <path id="path27" style="fill:gray" d="M.2,44V.4A.35.35,0,0,1,.3.2H2.2c.1,0,.1.1.1.2V44a.35.35,0,0,1-.1.2H.4A.22.22,0,0,1,.2,44Z" />
    <line id="line29" style="fill:none;stroke:#999;stroke-miterlimit:10;stroke-width:0.119999997317791px" y2="0.2" x2="2.3" y1="0.2" x1="0.3" />
    <path id="path31" style="fill:none;stroke:#4d4d4d;stroke-miterlimit:10;stroke-width:0.146899998188019px" d="M.3,44.2c-.1,0-.1-.1-.1-.2h0V.4C.2.3.2.2.3.2" />
    <line id="line33" style="fill:none;stroke:#999;stroke-miterlimit:10;stroke-width:0.146899998188019px" y2="44.2" x2="0.3" y1="44.2" x1="2.3" />
    <path id="path35" style="fill:none;stroke:#e6e6e6;stroke-miterlimit:10;stroke-width:0.146899998188019px" d="M2.2.2c.1,0,.1.1.1.2V44c0,.1,0,.2-.1.2h0" />
    <rect id="rect37" style="fill:#949494;fill-opacity:1" height="2.1" width="20.6" y="6.7" x="2.7" />
    <rect id="rect39" style="fill:#333" height="0.5" width="0.3" y="7.4" x="2.4" />
    <rect id="rect41" style="fill:#333" height="0.5" width="0.3" y="7.4" x="23.3" />
    <rect id="rect43" style="fill:#949494;fill-opacity:1" height="2.1" width="20.6" y="3.7" x="2.7" />
    <rect id="rect45" style="fill:#333" height="0.5" width="0.3" y="4.5" x="2.4" />
    <rect id="rect47" style="fill:#333" height="0.5" width="0.3" y="4.5" x="23.3" />
    <rect id="rect49" style="fill:#949494;fill-opacity:1" height="2.1" width="20.6" y="0.8" x="2.7" />
    <rect id="rect51" style="fill:#333" height="0.5" width="0.3" y="1.6" x="2.4" />
    <rect id="rect53" style="fill:#333" height="0.5" width="0.3" y="1.6" x="23.3" />
    <rect id="rect55" style="fill:#949494;fill-opacity:1" height="2.1" width="20.6" y="9.6" x="2.7" />
    <rect id="rect57" style="fill:#333" height="0.5" width="0.3" y="10.4" x="2.4" />
    <rect id="rect59" style="fill:#333" height="0.5" width="0.3" y="10.4" x="23.3" />
    <rect id="rect61" style="fill:#949494;fill-opacity:1" height="2.1" width="20.6" y="12.5" x="2.7" />
    <rect id="rect63" style="fill:#333" height="0.5" width="0.3" y="13.3" x="2.4" />
    <rect id="rect65" style="fill:#333" height="0.5" width="0.3" y="13.3" x="23.3" />
    <rect id="rect67" style="fill:#949494;fill-opacity:1" height="2" width="20.6" y="15.4" x="2.7" />
    <rect id="rect69" style="fill:#333" height="0.5" width="0.3" y="16.2" x="2.4" />
    <rect id="rect71" style="fill:#333" height="0.5" width="0.3" y="16.2" x="23.3" />
    <rect id="rect73" style="fill:#949494;fill-opacity:1" height="2" width="20.6" y="18.4" x="2.7" />
    <rect id="rect75" style="fill:#333" height="0.5" width="0.3" y="19.1" x="2.4" />
    <rect id="rect77" style="fill:#333" height="0.5" width="0.3" y="19.1" x="23.3" />
    <rect id="rect79" style="fill:#949494;fill-opacity:1" height="2" width="20.6" y="21.3" x="2.7" />
    <rect id="rect81" style="fill:#333" height="0.5" width="0.3" y="22.1" x="2.4" />
    <rect id="rect83" style="fill:#333" height="0.5" width="0.3" y="22.1" x="23.3" />
    <rect id="rect85" style="fill:#949494;fill-opacity:1" height="2" width="20.6" y="24.2" x="2.7" />
    <rect id="rect87" style="fill:#333" height="0.5" width="0.3" y="25" x="2.4" />
    <rect id="rect89" style="fill:#333" height="0.5" width="0.3" y="25" x="23.3" />
    <rect id="rect91" style="fill:#949494;fill-opacity:1" height="2" width="20.6" y="27.1" x="2.7" />
    <rect id="rect93" style="fill:#333" height="0.5" width="0.3" y="27.9" x="2.4" />
    <rect id="rect95" style="fill:#333" height="0.5" width="0.3" y="27.9" x="23.3" />
    <rect id="rect97" style="fill:#949494;fill-opacity:1" height="2" width="20.6" y="30.1" x="2.7" />
    <rect id="rect99" style="fill:#333" height="0.5" width="0.3" y="30.9" x="2.4" />
    <rect id="rect101" style="fill:#333" height="0.5" width="0.3" y="30.8" x="23.3" />
    <rect id="rect103" style="fill:#949494;fill-opacity:1" height="2" width="20.6" y="33" x="2.7" />
    <rect id="rect105" style="fill:#333" height="0.5" width="0.3" y="33.8" x="2.4" />
    <rect id="rect107" style="fill:#333" height="0.5" width="0.3" y="33.8" x="23.3" />
    <rect id="rect109" style="fill:#949494;fill-opacity:1" height="2" width="20.6" y="35.9" x="2.7" />
    <rect id="rect111" style="fill:#333" height="0.5" width="0.3" y="36.7" x="2.4" />
    <rect id="rect113" style="fill:#333" height="0.5" width="0.3" y="36.7" x="23.3" />
    <rect id="rect115" style="fill:#949494;fill-opacity:1" height="2" width="20.6" y="38.9" x="2.7" />
    <rect id="rect117" style="fill:#333" height="0.5" width="0.3" y="39.6" x="2.4" />
    <rect id="rect119" style="fill:#333" height="0.5" width="0.3" y="39.6" x="23.3" />
    <rect id="rect123" style="fill:#333" height="0.5" width="0.3" y="42.6" x="2.4" />
    <rect id="rect125" style="fill:#333" height="0.5" width="0.3" y="42.5" x="23.3" />
    <path id="path127" style="fill:gray" d="M23.6,44V.4a.35.35,0,0,1,.1-.2h1.9c.1,0,.1.1.1.2V44a.35.35,0,0,1-.1.2H23.8A.22.22,0,0,1,23.6,44Z" />
    <line id="line129" style="fill:none;stroke:#999;stroke-miterlimit:10;stroke-width:0.119999997317791px" y2="0.2" x2="25.7" y1="0.2" x1="23.7" />
    <path id="path131" style="fill:none;stroke:#4d4d4d;stroke-miterlimit:10;stroke-width:0.146899998188019px" d="M23.7,44.2c-.1,0-.1-.1-.1-.2h0V.4c0-.1,0-.2.1-.2" />
    <line id="line133" style="fill:none;stroke:#999;stroke-miterlimit:10;stroke-width:0.146899998188019px" y2="44.2" x2="23.7" y1="44.2" x1="25.7" />
    <path id="path135" style="fill:none;stroke:#e6e6e6;stroke-miterlimit:10;stroke-width:0.146899998188019px" d="M25.7.2c.1,0,.1.1.1.2V44c0,.1,0,.2-.1.2h0" />
  </g>
</svg>
